<?xml version="1.0" encoding="utf-8"?>
<!-- Generator: Adobe Illustrator 25.3.1, SVG Export Plug-In . SVG Version: 6.00 Build 0)  -->
<svg version="1.1" id="Capa_1" xmlns="http://www.w3.org/2000/svg" xmlns:xlink="http://www.w3.org/1999/xlink" x="0px" y="0px"
	 viewBox="0 0 1920 170" style="enable-background:new 0 0 1920 170;" xml:space="preserve">
<style type="text/css">
	.st0{fill:#F3F3F3;}
</style>
<path class="st0" d="M1238.1,80.1h-0.2l0.2-0.2c-0.1,0.1-0.4,0.2-0.3,0.4L1238.1,80.1z M1357,101.5c-1.8-0.4-4.9,4.3-4,6
	C1354.8,107.4,1358.2,103.2,1357,101.5z M1346.7,103.6c0.1,0.1,0.3,0.1,0.4,0.1c0-0.1-0.1-0.2-0.1-0.3
	C1346.9,103.7,1346.8,103.7,1346.7,103.6z M1359.1,107c0.4-0.8,0-2.1-0.9-1C1358.5,106.5,1358.4,107.5,1359.1,107z M1364.4,113.5
	c-0.6-2.8-17-2.3-12.8,1.8C1355.2,111.5,1361.2,117.5,1364.4,113.5z M1338.8,109.5c0.5-0.4,1.3-0.8,0.5-1.2
	C1338,107.8,1337.8,108.9,1338.8,109.5z M1360,97.6c0.9-0.2,1-1.2,0-1.4C1358.4,96,1359,97.2,1360,97.6z M1344.9,116.1
	c1.4-0.2,0.2-1.7-0.2-2.3C1343.1,112.8,1343.2,116.3,1344.9,116.1z M1342.9,91.5l-0.4-0.1l0.1,0.5L1342.9,91.5z M1334.8,105.5
	c-0.6-0.4-0.9-0.3-0.8,0.3C1334.2,106,1334.8,106.1,1334.8,105.5z M1385.1,93.1c4.1-2,2.2-5.1-0.7-1.4
	C1384.2,92,1384.4,93.4,1385.1,93.1z M1376,101.3l-0.5-0.2l0.1,0.6L1376,101.3z M1377.7,109c0.6-0.4,0.5-1.8-0.4-1.9
	C1375.7,107.1,1375.8,109.4,1377.7,109z M1372.4,104.6c0.4,0.1,0.7-0.4,0.5-0.7C1372.3,103.4,1371.4,104.3,1372.4,104.6z
	 M1382.2,109.3c0.2-1.3-1.3-0.3-0.4,0.4C1381.9,109.5,1382.1,109.4,1382.2,109.3z M1334,98.3c-0.4-0.8-1.1-0.2-1.7,0
	C1332.6,99,1333.4,98.5,1334,98.3z M1255.7,85.7l-0.3,0.5h0.5L1255.7,85.7z M1370.6,110.3c2.9-1.6-0.7-5-2.7-2.8
	C1368.8,108.4,1369.1,111,1370.6,110.3z M1253.1,97.5c0.1-1.6-1.4-0.3-0.4,0.5C1252.9,97.8,1253.1,97.7,1253.1,97.5z M1243.4,89.7
	c1.2-1.3,4.8,0.5,3.7-1.6C1245.8,84.4,1238.6,88.3,1243.4,89.7z M1368.5,93.5c0.1-0.1-0.1-0.4-0.2-0.6
	C1367.6,92.9,1368,94.2,1368.5,93.5z M1380.3,99.4l-0.2,0.3l0.4,0.1L1380.3,99.4z M1311.1,113.4l0.3-0.3l-0.4-0.1L1311.1,113.4z
	 M1308.8,110.3c0.1-0.5-0.4-0.5-0.7-0.3C1308.1,110.5,1308.4,110.5,1308.8,110.3z M1310.2,98.6c2.2,0.6,1.3-1.7-0.3-0.5
	C1309.9,98.2,1310,98.5,1310.2,98.6z M1312.9,107.3l-0.2-0.5l-0.3,0.4L1312.9,107.3z M1305.1,100.7c0.8-1.1-1-1.3-1.4-0.5
	C1303.5,101.2,1304.3,101.6,1305.1,100.7z M1287.1,97.3C1287.1,97.3,1287.1,97.4,1287.1,97.3l0.1-0.2l0,0l0,0
	c-0.1,0-0.3-0.1-0.3-0.2c-1.3-0.6-2.4,0.7-2.3,2c0.1-0.1,0.2-0.2,0.2-0.3C1285.6,98.4,1286.9,98.8,1287.1,97.3z M1386.4,86.2
	c-0.3-0.8-0.9-0.3-1.5-0.1C1385.5,86.3,1386,86.9,1386.4,86.2z M1330.1,114.9L1330.1,114.9l-0.3-0.1l0,0l0,0
	c0.1,0.2,0.2,0.2,0.3,0.3C1330.1,115,1330.2,115,1330.1,114.9z M1284.6,99c-0.3,0.2-0.2,0.3,0,0.6
	C1284.6,99.4,1284.6,99.2,1284.6,99z M1281.4,104.2c-0.1-0.1-0.1-0.1-0.2-0.2C1281.1,104.1,1281.4,104.1,1281.4,104.2z M1281.4,95
	l-0.3,0.4l0.4,0.1L1281.4,95z M1312.8,102.3l-0.3,0.5l0.5,0.1L1312.8,102.3z M1330,115c-0.1,0-0.2,0.1-0.3,0.1
	C1330,115.4,1330.1,115.3,1330,115z M1333.2,118.3l-0.3,0.3C1333.1,118.7,1333.1,118.5,1333.2,118.3z M812.5,94.3
	c-0.1,0.1-0.4,0-0.3,0.2L812.5,94.3z M1333.3,117.2c2.9-4.1-1.4-1-3.2-2.1c0.1,1.3-1.1,2.1-1.6,3.2
	C1329.4,118.1,1333.7,119.1,1333.3,117.2z M1328.5,118.6c0-0.1,0.1-0.2,0.1-0.2h-0.2C1328.4,118.4,1328.4,118.6,1328.5,118.6
	L1328.5,118.6z M1325,107l-0.4-0.1l0.1,0.4L1325,107z M1281.2,104c0.2-0.7,0.4-1.4,0.5-2.1C1281.3,99.2,1279.6,103.1,1281.2,104z
	 M1315.9,88.4c0-0.4-0.5-0.6-0.7-0.2C1314.9,88.9,1316,89.5,1315.9,88.4z M1323.4,116.4c1.5-1.8-0.8-2.5-2.2-5.2
	C1321.7,114.3,1321,116.4,1323.4,116.4z M1314.5,112.1c0.4-0.1,0.9-0.3,1.3-0.4c-0.4-0.9-1.1-0.3-1.7-0.1
	C1314.2,111.7,1314.4,112.1,1314.5,112.1z M1318.4,97.4c1.4,0.5,1.7-2.5,0.3-2.7C1317.5,95.1,1317.4,96.8,1318.4,97.4z
	 M1347.2,102.1c-0.6,0.4-0.4,0.9-0.2,1.4C1347.1,103,1347.7,102.4,1347.2,102.1z M1486.6,80.3c-3.1,0.1-8.8-4.3-4.5,1.8
	C1483,83.8,1487.9,83.6,1486.6,80.3z M1482.2,102.3c-0.4,0.6,0.5,0.9,0.9,0.4C1482.9,102.4,1482.6,102.1,1482.2,102.3z M1484.2,97.1
	c0.4,0,0.6-0.3,0.4-0.6C1484.2,96.5,1484,96.8,1484.2,97.1z M1486.7,80.3L1486.7,80.3c0,0,0.7,0,1.3,0
	C1487.5,80.3,1487.1,80.3,1486.7,80.3C1486.6,80.4,1486.7,80.3,1486.7,80.3z M1385.4,110.2c0.7,6.6,5.6-0.6,3.5-4.1
	C1387.2,105.2,1384.9,108.3,1385.4,110.2z M1462.4,100.4c-0.6-1.5-0.7-3.2-0.5-4.8c-2.2-1.8-2.1,1.8-1.5,3.2
	C1459.8,100.4,1461.4,102.7,1462.4,100.4z M1459.6,78.4l-0.1,0.3l0.4-0.1L1459.6,78.4z M1490.4,100.5L1490.4,100.5
	c0.2,0,0.2,0,0.2-0.2l0,0l0,0l-0.2-0.1C1490.3,100.2,1490.4,100.5,1490.4,100.5z M1474,92.5c1-0.1,1.9-0.7,2.3-1.6
	C1474.9,89.3,1471,91.9,1474,92.5z M1470.7,84.2c-0.2-0.3-0.3-0.5-0.5-0.7C1469.9,83.9,1470.2,84.8,1470.7,84.2z M1471.9,99.1
	c0-0.9-1.8-2.3-2.4-1.1C1470,98.7,1471.1,100.7,1471.9,99.1z M1467.6,93.7h-0.4l0.2,0.4L1467.6,93.7z M1497.2,68.7
	c1.4,0.8,2.7-0.4,2.8-1.9C1498.9,66,1495.7,67.4,1497.2,68.7z M1502.2,90.7c0-0.5-0.6-0.5-0.8-0.1
	C1501.5,91.1,1502.1,91.2,1502.2,90.7z M1506.8,71.8c1.4-0.5,0.2-1.5-0.6-1.8C1505.7,70.8,1505.5,72.2,1506.8,71.8z M1499,84.6
	l-0.4,0.1l0.3,0.2L1499,84.6z M1502,104.6c0.4-0.1,0.8-0.2,1.1-0.4c-0.4-0.7-1-0.2-1.5,0C1501.7,104.4,1501.9,104.7,1502,104.6z
	 M1496,91.1c2-1.2-0.7-3.7-2.7-2.4C1491.6,90.1,1495.2,90.5,1496,91.1z M1496,80.1h-0.4l0.2,0.5L1496,80.1z M1492.3,103.9
	c-1.3-0.1-2.6-0.3-4-0.3C1481.1,107.2,1488.1,109.8,1492.3,103.9z M1492.5,103.7L1492.5,103.7c-0.1,0.1-0.1,0.1-0.2,0.2
	c0.2,0,0.3,0,0.5,0l0,0l0,0C1492.7,103.9,1492.6,103.7,1492.5,103.7z M1488.2,94.2c0.6-2.3-1.6-5.7-3.1-2.4
	C1484.7,92.8,1487.1,95.4,1488.2,94.2z M1495.4,103.3c1.7-1.8-3.4-2.7-4.8-2.8C1491,103.1,1493,104.2,1495.4,103.3z M1488,80.3
	c0.2,0,0.4,0,0.5,0C1488.5,80.3,1488.2,80.3,1488,80.3z M1411.4,103.9c0.8,0.5,2.6-1,2.1-1.4C1412,101.7,1408.9,102.4,1411.4,103.9z
	 M1413.8,85.5c0.6,0.2,1,0.2,1.3-0.3C1415.5,83.2,1411.3,84.2,1413.8,85.5z M1431.3,102.7c0.4-0.5,0.8-1.5,0-1.9
	C1430,100.2,1429.7,103.6,1431.3,102.7z M1420.5,97.7c-0.7-1.5-5.8,0.4-4.2,1.6C1417.7,97.7,1422.7,101.7,1420.5,97.7z M1408.5,92.2
	c-0.2-0.4-1.4-0.3-0.9,0.1C1407.9,92.5,1408.3,92.5,1408.5,92.2z M1456.5,107c0.1,0.1,0.2,0.2,0.3,0.3
	C1456.9,106.9,1456.9,106.8,1456.5,107z M1389.9,97.1c0.6-0.1,1.3-0.3,1.9-0.4C1391.5,95.7,1388.6,96.3,1389.9,97.1z M1394.4,107.4
	c9.6,0.7,8.9-7.1,3-6.9C1395.3,101.5,1389.9,106.6,1394.4,107.4z M1508.5,80.3c0.1,0,0.1,0,0.2,0C1508.1,79,1506.8,80.7,1508.5,80.3
	z M1408,106.8c0-0.4-0.4-0.8-0.6-1.2c-0.7,0.8-0.8,1.5,0,2.3C1407.5,107.5,1408,107.2,1408,106.8z M1404.1,83.6
	c0.7-0.6-1.3-1.3-1.5-0.4C1402.5,83.7,1403.5,84,1404.1,83.6z M1422.4,91.5c-3.6,1,0.6,4.4,1.6,6.2
	C1429.6,100.4,1426.1,91.2,1422.4,91.5z M1443.3,102.6L1443.3,102.6C1443.3,102.6,1443.4,102.5,1443.3,102.6L1443.3,102.6
	C1443.4,102.5,1443.3,102.5,1443.3,102.6L1443.3,102.6L1443.3,102.6z M1433.4,83.9c1.9-0.1,1.6-3-0.2-3
	C1431,80.8,1430.5,84.2,1433.4,83.9z M1446.4,107.1l-0.4-0.1l0.1,0.4L1446.4,107.1z M1455.2,107.1c0.5,0.1,1.1,0.2,1.6,0.3l0,0
	c0,0,0.1-0.1,0-0.1C1456.8,107.4,1455.2,107,1455.2,107.1z M1450.3,105.6c1.1-1.1-0.3-4.1-1.5-4.4
	C1447.2,102,1449,105.2,1450.3,105.6z M1442.7,104.6c1.2,1.4,0.9-1.2,0.6-1.9C1443.1,103.3,1442.5,103.9,1442.7,104.6z M1437.7,93.4
	c1-0.2,2-1.3,0.5-1.7C1436.3,91.3,1436.5,92.8,1437.7,93.4z M1443.3,102.5c-0.4-0.6-0.9-1.1-1.4-1.6
	C1437.9,100.3,1440.4,104.9,1443.3,102.5z M1442.3,85.6c1.5-1.4-0.6-3.2-2.1-3C1437.6,83.3,1440.7,86.1,1442.3,85.6z M1438.2,111.8
	c1.1,0.6,3.2,1.3,4.1,0.3C1441.8,110.5,1439.3,110.7,1438.2,111.8z M1398.7,94.8v0.5l0.5-0.2L1398.7,94.8z M880.6,83.7
	c0.7,0.2,1.5,0.3,1.6,1.2l0,0l0,0C886.3,77.9,875.1,79.8,880.6,83.7z M854.6,94.3c1.4,0,2.8,0,4.1,0c-0.5-1.9-2-7.1-4.5-5.8
	C854,90.6,855.7,92.2,854.6,94.3z M854.6,94.5c0-0.1,0-0.1,0-0.2c-0.1,0-0.1,0-0.2,0L854.6,94.5z M846.6,85.6c4,1.9,2.2-4.9,0.1-5.6
	v-0.4c-0.1,0.1-0.2,0.2-0.2,0.4c0,0,0,0-0.1,0C848.2,81.7,844.5,84.1,846.6,85.6z M859,94.3c-0.1,0-0.2,0-0.3,0
	c0,0.1,0.1,0.2,0.1,0.3L859,94.3z M859,70.6c1.4,0.2,3.2-0.3,2.6-2.1C860.9,67.8,857,69.9,859,70.6z M838,85.8
	c0.2,0.7,1,0.9,1.7,0.8C842.3,85.3,836.9,81.9,838,85.8z M843,76.9c-0.4,0-0.7,0.3-0.4,0.5C843.1,77.5,843.3,77.1,843,76.9z
	 M843.4,95.2c1.9-1.1,5.7-5,1.1-3.5C843.6,92.6,840.6,95.4,843.4,95.2z M843.9,56.9c2.2,0.5,0.7-2.4-0.8-0.8
	C843.4,56.3,843.6,56.7,843.9,56.9z M843.5,69.1c1.4,0,2.8-1.9,0.7-2.1C842.9,67.3,842.4,68.5,843.5,69.1z M847,96.9
	c0.5,0.2,0.7,0.3,0.8-0.3C847.3,96.4,847,96.3,847,96.9z M870.2,72.8l-0.2-0.9c-0.1,0,0.3,0.7,0.1,1
	C870.1,72.9,870.1,72.9,870.2,72.8L870.2,72.8z M869,75.4c0.2,0.8,0.8,1.5,1.7,1.6C871,75.8,870.2,74.8,869,75.4z M873.1,81.8
	L873.1,81.8l-0.1-0.2l-0.3,0.2h0.2l-0.1,0.3C872.7,82.1,873.1,81.8,873.1,81.8z M872.9,62.4c0.9,0.3,1-0.8,0.2-0.9
	C872.5,61.7,872.4,62.1,872.9,62.4z M875.5,76.2c0.9,0.2,1.7-0.5,1.2-1.4C876.3,73.6,873.9,76,875.5,76.2z M861.1,85.9
	c-0.9,0.3-0.6,2.4,0.8,2.1C862.5,87.5,861.8,86,861.1,85.9z M865.3,82c2.3-0.9-0.6-4.1-2.1-1.9C860.6,82.2,863.4,82.6,865.3,82z
	 M861.9,52.9l-0.6,0.2l0.6,0.3V52.9z M867.5,87.7c0.9-0.5,0.8-1.9,0-2.4C866.1,85.3,866.3,88.2,867.5,87.7z M870.1,72.9
	c-1.6,0.6-1.6,0.7-1.1,2.4C869.3,74.5,869.7,73.7,870.1,72.9z M868.9,75.3c0,0.1-0.1,0.2-0.1,0.2C869,75.5,869,75.4,868.9,75.3z
	 M853.8,74.2c1.4-0.1,0.4-1.8-0.6-2C851.2,72.4,852.3,74.1,853.8,74.2z M819.5,89.8h-0.4l0.2,0.6L819.5,89.8z M819.2,84.4v0.4
	l0.4-0.1L819.2,84.4z M822.8,85.2c1.5,1.1,2.2-1.4,0.3-1.3C822.3,83.8,821.9,84.9,822.8,85.2z M823.9,85.8L823.9,85.8
	c0.8,0,1.6,0,2.4,0l0,0l0,0c0-0.1,0-0.3,0-0.4c-0.1,0.1-0.1,0.1-0.2,0.2C825.4,85.7,824.4,85.5,823.9,85.8z M823.9,85.8L823.9,85.8
	L823.9,85.8L823.9,85.8z M826.3,84.6c0,0.3,0,0.5,0.1,0.8c0.2-0.2,0.4-0.4,0.5-0.7C826.7,84.6,826.5,84.6,826.3,84.6z M819.7,97.4
	c-1.1-0.9-1.6-2.7-2.8-3.3c-1.3-0.8-2.7,0.7-4.2,0.5C814.4,96.6,817,100.7,819.7,97.4z M812.7,94.6c0-0.1-0.1-0.2-0.1-0.3l-0.3,0.2
	C812.4,94.6,812.5,94.6,812.7,94.6z M839.9,100c-0.1,0.1-0.1,0.1-0.2,0.2L839.9,100z M819.9,97.3c-0.1,0.1-0.1,0.1-0.2,0.2
	c0.2,0.1,0.4,0.1,0.5,0.2C820.3,97.5,820,97.4,819.9,97.3z M814.5,87.9c0.7-0.1,0.5-1.4-0.2-0.9C814.1,87.2,814.2,87.8,814.5,87.9z
	 M817.4,70.3c-1.9,0-3.1,3.7-2.3,5C816.9,75.8,820.7,70.9,817.4,70.3z M838.6,93.8c-0.4-0.1-0.6,0.1-0.5,0.5
	C838.4,94.4,838.7,94.1,838.6,93.8z M838.1,83.9l-0.2,0.1C838,84,838.1,84,838.1,83.9c-0.1,0-0.1,0-0.2,0c0,0.1,0,0.1,0,0.2
	L838.1,83.9z M837.5,95.4c0.2,0.2,0.6-0.4,0.5-0.9C837.2,94.5,836.5,94.5,837.5,95.4z M837.9,94.4L837.9,94.4L837.9,94.4
	c0,0.1,0,0.2,0.2,0.2C838,94.4,838.1,94.3,837.9,94.4z M838.7,100.2c0.3,0.2,0.7,0.2,0.9,0c-0.3-0.3-0.6-0.5-1-0.8
	C838.6,99.7,838.5,100,838.7,100.2z M837.9,83.8c-0.4-1.6-2.5-1.2-3.4-0.5C834.4,84.5,836.9,83.6,837.9,83.8z M831.9,57.9
	c2.9-0.7,0.2-3.1-1.6-1.4C830.7,57,831.2,57.5,831.9,57.9z M833,63.2c0.2-1-0.7-1.2-0.8-0.3C832.4,63.4,832.7,63.7,833,63.2z
	 M832.2,78.4c-0.9,0.5-0.3,2.5,0.8,2C834,80.1,833.3,77.9,832.2,78.4z M832.6,90.9c-0.6,0.8-0.4,1.6,0.1,2.4
	C833.4,92.8,833.4,90.3,832.6,90.9z M828.1,76c2-1.3-2.2-3.5-3.2-1.8C825.1,75.6,826.7,76.5,828.1,76z M1199.6,83.1l-0.1,0.4
	l0.5-0.1L1199.6,83.1z M991.7,82.9c-0.1-0.1-0.5-0.1-0.7,0C989.7,83.8,992.7,84.1,991.7,82.9z M1033.8,80.5c0.5-0.7-0.5-0.9-0.8-0.4
	C1033.1,80.5,1033.5,80.7,1033.8,80.5z M982.9,72.5c3.1,0.9,2.1-3.3-0.5-2.7C980.9,70.5,982,72,982.9,72.5z M1010,71.3
	c0.5-0.6-0.4-1.5-0.7-0.5C1009.2,71.2,1009.7,71.5,1010,71.3z M1001.3,74.2c0.4-0.2,0.7-0.5,1-0.8
	C1002.7,71.8,1000.2,73.6,1001.3,74.2z M977.6,76.9c0.3-0.5,0.3-0.9-0.2-1.1C975.9,75.7,976.4,78.5,977.6,76.9z M955.9,76
	c-0.2,0.5-0.2,1.3-0.2,2.1C955.8,77.4,955.9,76.7,955.9,76z M957.3,40.9l-0.3,0.4l0.4,0.1L957.3,40.9z M975.2,83.6
	c0.5-0.1,0.5-0.6,0-0.8C974.8,82.9,974.7,83.5,975.2,83.6z M964.3,68.1c-0.8-0.7-0.9-2.1-2.2-2.3C960.1,66.5,963.3,68.3,964.3,68.1z
	 M964.3,68.7c0.1-0.1,0.4-0.4,0.3-0.6c-0.1,0-0.2,0-0.3,0C964.7,68.2,964.3,68.7,964.3,68.7z M1090,66.3l-0.1,0.5l0.7-0.2L1090,66.3
	z M1194.1,84.7c-0.1-0.9-1.2-0.9-1.5-0.1C1192.7,85.5,1193.6,84.8,1194.1,84.7z M1042.2,76c0.2,0,0.4-0.2,0.6-0.3
	c-0.5-0.5-1-1-1.5-1.5C1040.5,74.9,1040.9,76.2,1042.2,76z M1224.4,81.5l-0.4-0.1l0.1,0.4L1224.4,81.5z M1185.7,82.8L1185.7,82.8
	l0.4-0.4l-0.2,0.1C1185.5,80.9,1184.6,81.5,1185.7,82.8L1185.7,82.8z M1214.5,75.6c-1.8,0-1.8,2.8-1.9,4
	C1214.1,82.2,1215.5,76.3,1214.5,75.6z M1232.7,86.7c1.9-0.3-0.5-1.9,0.7-2.8c1.6-1.7,1.6-2.6,0.1-3.8
	C1230,79.3,1227.6,87.6,1232.7,86.7z M1055.8,79.1l-0.5,0.2C1055.5,79.3,1055.7,79.3,1055.8,79.1z M1046.9,74
	c-0.4-0.2-0.7-0.3-0.8,0.2C1046.5,74.4,1046.8,74.6,1046.9,74z M1114.4,74.5c0.9,0.2,0.8-1.3,0-1C1114.1,73.7,1114,74.3,1114.4,74.5
	z M955.7,78.1c-0.1,0.8-0.2,1.7-0.3,2.5C955.7,80,955.7,79,955.7,78.1z M1177.5,79.2c1.4-1.7-2.2-1.6-3.1-2.3
	C1171.5,77.5,1176.3,80.9,1177.5,79.2z M911.9,79.1c1.9-1.4-1.3-3-2.6-2.1C909.7,78.2,910.8,78.6,911.9,79.1z M890.2,62.6
	c1.2,0,2.1-1.4,1.1-2.2C890.3,60.1,888.8,62.1,890.2,62.6z M901,86.1c-0.6-0.4-1.2-0.7-1.8-0.9C895.5,85.1,899.7,88.3,901,86.1z
	 M898,76.3c1.6-1.6-3.1-1.4-3.9-0.5C895.3,76.6,896.7,76.8,898,76.3z M901.1,93.4c0.4-0.4,0.3-0.5-0.1-0.3
	C901.1,93.2,901.1,93.3,901.1,93.4z M901,93.1C901.1,93.1,901.1,93.1,901,93.1L901,93.1c0.1-1.3-0.2-2.5-0.8-3.5
	c1.5,0.4,0.4-2.1-0.3-0.5l0,0l0,0C899.9,90.5,899.2,92.4,901,93.1z M885.5,81.2C900.3,81.8,887.9,73.1,885.5,81.2L885.5,81.2z
	 M882.3,73.9l-0.5,0.2l0.4,0.3L882.3,73.9z M883,81L883,81L883,81c0-0.1,0-0.2-0.1-0.2l0,0l0,0C882.9,80.9,883,80.9,883,81z
	 M883.5,80.9c0.1,0,0.1-0.5,0.1-0.5C882.9,80,882.8,81.1,883.5,80.9z M885.4,74.7c-0.1-0.3,0.3-1.5-0.4-1.2
	C885.2,73.9,884.4,74.6,885.4,74.7z M897.2,80.2c0.2,2.8,4.7,1.7,5.3-0.3C902.3,77.5,897.6,77.8,897.2,80.2z M921.8,74.1l0.3,0.1
	c0-0.2,0-0.3,0.2-0.4C921.8,71.4,919.6,74.7,921.8,74.1z M933.5,67.9c0.1-0.1-0.1-0.4-0.1-0.6C932.6,67.3,932.9,68.6,933.5,67.9z
	 M933,62l-0.1,0.4l0.5-0.1L933,62z M956,75.3L956,75.3L956,75.3c-0.1,0.3-0.1,0.5-0.1,0.7c0.2-0.4,0.5-0.7,1.1-0.5
	C956.8,75.2,956.4,75.1,956,75.3L956,75.3z M906.9,86.9c0.4,0,0.7-0.4,1.1-0.6c-0.8-0.8-1.4-0.8-2.2,0
	C906.2,86.4,906.6,86.9,906.9,86.9z M956.2,71.6c-0.5-1.6-2.6-0.1-2.5,1.2C954.3,74.1,956.4,72.7,956.2,71.6z M943.9,63
	c-1.1-0.2-2.4,1.4-1.5,2.2C944,66.3,945.1,63.3,943.9,63z M907.7,70.5c-0.5,2-5.4,1.8-3.9,3.9C905.2,74.9,911.4,71.3,907.7,70.5z
	 M885.2,83.2c0.1-0.7,0.2-1.4,0.2-2c0,1.9-1.8,2.7-3.2,3.7C884.1,84.9,885.3,85.1,885.2,83.2z M917.7,74.8c-0.2-1-1.1-0.8-1.6-0.1
	C916,76.3,917.4,76.6,917.7,74.8z M921.3,85.4c0.2-0.9-0.9-1.1-1.5-0.6C920.3,85.1,920.8,86.1,921.3,85.4z M911.4,64.8
	c0.7-0.2,0.9-1.4,0-1.3C910.5,63.5,910.2,65.1,911.4,64.8z M1332.9,118.6l0.3-0.3C1332.9,118.3,1332.9,118.4,1332.9,118.6z
	 M1751.2,39.9c0-0.4-0.6-0.5-0.7-0.1C1750.5,40.2,1751,40.3,1751.2,39.9z M1750.8,54.3C1749.4,52.1,1749.7,56.9,1750.8,54.3
	L1750.8,54.3L1750.8,54.3z M1751.7,87.5c0.1,2.4,3,0.7,2.1-1.1C1753,85.5,1752.2,86.9,1751.7,87.5z M1753.8,60.9
	c0.7-0.3,0.3-1.4-0.4-0.9C1753.2,60.4,1753.3,60.9,1753.8,60.9z M1749.8,92.9c2.2-0.2-0.2-2.8-0.7-3.9
	C1745.7,87.4,1747.5,92.6,1749.8,92.9z M1747.4,83.7c-0.4-0.2-0.9-0.2-1.4-0.2C1742.7,85.8,1750.6,85.9,1747.4,83.7z M1752.6,66.1
	c0.5-0.8-0.3-1.4-1-0.9C1751.8,65.6,1751.9,66.7,1752.6,66.1z M1750.3,50.5c1.6-0.6-0.5-1.7-1.2-2.1
	C1748.3,49.7,1748.8,50.9,1750.3,50.5z M1774.9,57.1c3-0.4,1.9-3.7-0.4-3.7C1771.6,53.4,1771.8,57.8,1774.9,57.1z M1743.8,72.1
	c-0.5-0.5-1.3-0.3-1.7,0.2c0.4-0.3,0.7,0.7,1.1,0.8C1743.4,73.1,1744.4,72.6,1743.8,72.1z M1745.5,61.9c2.5,5.3,3.8,1.1,3.2-2.7
	C1747.2,59.4,1744.1,59.9,1745.5,61.9z M1744.6,42.9c0.7-0.7,1-1.1,0-1.8C1744.1,41.6,1743.9,42.4,1744.6,42.9z M1760.1,76.9
	c0-0.1,0-0.2-0.1-0.3C1760.1,76.8,1759.9,77.2,1760.1,76.9z M1768.8,50.6c0.1-0.5-0.1-0.9-0.7-1.1
	C1765.5,48.9,1767.5,53.4,1768.8,50.6z M1767.2,31.2c0.2-0.1,0.5-0.3,0.4-0.4C1767.5,29.8,1766.5,30.7,1767.2,31.2z M1777.9,78.2
	c0.4-1.3,0.8-4.1-1.3-3.7C1775.5,75.5,1777,77.4,1777.9,78.2z M1764.3,47c6.8-2.8,3.4-11.8-1.4-4.9
	C1762.5,43.5,1762.3,46.8,1764.3,47z M1773.5,45.9c-0.1,0.1-0.4,0.1-0.4,0.2C1773,47.2,1774.1,46.6,1773.5,45.9z M1743,51
	c0.3-0.2,0.4-0.7,0.8-1.2C1741.7,48.2,1740.1,51.4,1743,51z M1755.2,54.4c-0.2,0.1,0,0.5,0,0.6C1756,55.1,1755.9,54,1755.2,54.4z
	 M1755.1,48.6c-0.3-0.1-0.6-0.2-0.7,0.2C1754.7,49,1755,49.1,1755.1,48.6z M1754.9,81.9c-2.3-2.2-0.3-6.3-2.9-7.7
	c-1.8,3-3.6,5.5-0.1,8.2C1752.7,83.4,1754.6,83,1754.9,81.9z M1509.8,80.3L1509.8,80.3L1509.8,80.3L1509.8,80.3L1509.8,80.3
	c-0.4-0.1-0.7-0.1-1.1-0.1C1509,80.6,1509.4,80.6,1509.8,80.3z M1758.3,36.7l-0.4-0.1l0.1,0.4L1758.3,36.7z M1738.9,77
	c-3.2,1,1.3,5.1,2.6,6.5C1746.8,82.2,1742.2,77.7,1738.9,77z M1710.7,60.6c-0.2-0.2-0.4-0.5-0.5-0.7
	C1709.7,60.3,1710,61.2,1710.7,60.6z M1697,75.3c0.4-10.4-8.4-8.1-2.2,1C1695.4,77.4,1697.4,76.3,1697,75.3z M1697.2,48
	c0-0.2-0.2-0.4-0.2-0.6c-0.4,0.4-0.4,0.7-0.1,1.2C1696.9,48.3,1697.1,48.2,1697.2,48z M1717.6,53.5
	C1717.7,53.5,1717.7,53.6,1717.6,53.5c0.1,0.1,0.1,0,0.2,0l0,0l0,0h-1.3C1716.9,53.6,1717.3,53.6,1717.6,53.5z M1717.7,55
	c0.8-0.5,0.4-1,0-1.4C1717.6,54.1,1717,54.8,1717.7,55z M1711.8,78.3L1711.8,78.3c0.2-0.3,0-0.4-0.3-0.5
	C1710.5,77.7,1711.1,79.5,1711.8,78.3z M1674.2,72.3l-0.3,0.4h0.5L1674.2,72.3z M1668.4,57.6c-0.3-0.4-0.6-0.4-1,0
	C1667.8,57.9,1668,58,1668.4,57.6z M1686.2,74.2c0.3,0.2,0.6,0.4,0.7,0.4C1689.5,74,1687.3,71.7,1686.2,74.2z M1686.1,62.6
	c1-0.2,0.9-1.3,0.6-2C1685.2,60.9,1684.4,62.4,1686.1,62.6z M1680.6,69.4c-0.1-2.8-5.6-2.7-4.4-0.6
	C1677.4,69.2,1680.7,72.2,1680.6,69.4z M1726.3,71.6c0.2,0,0.4-0.1,0.6-0.2C1727.2,70,1724.8,71.1,1726.3,71.6z M1741.3,101.3
	c-0.1,0.3,0.1,0.8,0.2,1.2C1742.7,102.9,1742.1,99.6,1741.3,101.3z M1718.6,70.3c1,5.6-5.4,11.8,1.2,16.2c5.9,0-0.6-4.6-0.2-6.8
	c1.7-1.8,3.2-3.1,1.2-5.5c-2.3-2.4,2.3-6.6-1.2-8.4C1716.9,65.5,1718.7,68.8,1718.6,70.3z M1724.8,88.1c-2.2,2.9,4.1,0.1,4.6,3.1
	c0.7,1.2,2,1.3,3.2,1.6c2.1,1-0.8,4.1,2,4.5c3.6,3.6,5.4-1.5,9.1,0.2c1.5,2.1,7.1,1.9,4.2-1.2c-4.7-1.1-11.6-3.3-4.5-7.2
	c-3.9-2-9-1.5-11.9-5.1c-2.3-1.6,0.9-4.4-0.9-6C1725.5,77.6,1730.1,86.9,1724.8,88.1z M1735.2,80.8c0.1-0.2,0.2-0.3,0.3-0.5
	C1734,79.5,1733.7,81.6,1735.2,80.8z M1738.2,51.8c-0.7-4.9-3.4,0.9-3.9,3C1736.2,54.9,1737.8,53.6,1738.2,51.8z M1730.8,65.7
	c0.1-0.8-1.2-1-1.2-0.1C1729.6,66.5,1730.6,66.6,1730.8,65.7z M1719.6,41.8c0.3-0.4,0.3-0.7-0.1-1C1719,41,1718.9,41.9,1719.6,41.8z
	 M1722.3,56.5c1-0.5,2.4-0.8,3-1.7C1723.7,52.1,1717.5,55.8,1722.3,56.5z M1725.1,81c-0.6-0.5-1.1,0.3-1.5,0.7
	C1724.2,82.1,1725.9,82.1,1725.1,81z M1721.9,49c0.5,0.2,0.8-0.1,0.6-0.5C1722.1,48,1721.1,48.6,1721.9,49z M1737.2,65.7
	c0.6,1.7,3,1.7,4.4,1.2C1742.2,63.7,1738,62.3,1737.2,65.7z M1802.3,51c0.7-1.6-1.8-4.4-1.9-1.8C1801,49.8,1801.6,50.4,1802.3,51z
	 M1890.7,98.6c0.1,0.1,0.1,0.1,0.2,0c-0.1,0-0.2,0-0.3-0.1C1890.6,98.5,1890.6,98.5,1890.7,98.6L1890.7,98.6c-0.1,0-0.2,0.1-0.2,0.2
	C1890.5,98.7,1890.6,98.7,1890.7,98.6L1890.7,98.6z M1864.6,90.7c-0.3-0.4-0.6-0.4-1.1-0.1C1863.9,91,1864.2,91,1864.6,90.7z
	 M1889,101.6c0.5-0.9,1-1.8,1.4-2.8C1888.1,98.6,1885.4,101.8,1889,101.6z M1843.8,98.4l-1.7-0.5C1842.3,98.2,1843.1,99,1843.8,98.4
	z M1889.7,107.7c-0.3,0.8,0.1,1.3,0.5,2c0.6-0.8,0.6-1.6,0-2.5C1890,107.4,1889.8,107.6,1889.7,107.7z M1847.6,94.5
	c1.8,1.5,3.4,7.4,4.4,1.5C1853.3,92.2,1843.8,92.4,1847.6,94.5z M1802.3,51.3c0.1,0,0.1-0.1,0.2-0.2L1802.3,51.3z M1814.7,72.6
	c1.3-0.6,0.8-2.1-0.3-2.5C1812.2,70,1813.6,72.1,1814.7,72.6z M1807.8,49.6c-3.4,1-10.5,4.2-3.4,6c2.5-1.2,4.6-3.4,7.5-3.9
	C1813.4,49.2,1809.4,48.3,1807.8,49.6z M1810,60.6c-3.5,2.4-8.3-0.1-12.2,2.1c4.2,0,8.8,0.8,12.5,2.6
	C1816.5,66.9,1814.6,59.8,1810,60.6z M1804.6,68.1c-0.5,1.2,0.9,3.7,2.6,3C1810.6,69.6,1806.7,65.6,1804.6,68.1z M1893.5,97.9
	c-0.4-1.4-1.9,0.3-2.6,0.6C1891.9,98.8,1893,99.2,1893.5,97.9z M1901,107.6l-0.3-0.6l-0.2,0.6H1901z M1809.7,27.5
	c0.7-0.5-0.2-2.3-1.1-1.8C1807.5,26.2,1809.1,27.8,1809.7,27.5z M1900.1,91.6L1900.1,91.6c0.2-0.9,0.3-1.8,0.7-2.6
	c-0.5-0.6-1.1,0.2-0.5,0.4C1899.8,90,1900.1,90.9,1900.1,91.6C1900,91.7,1900,91.7,1900.1,91.6L1900.1,91.6z M1905.7,95.9
	c2.3,0,4.6-3.9,1.1-5.3C1906.5,92.2,1904.1,94.6,1905.7,95.9z M1913.6,93.7c-1.2,0.8-3.8,1.9-2,3.5
	C1913.2,98,1915.3,94.9,1913.6,93.7z M1902.1,103.1c1.2-0.3,3.1-1.5,1.8-2.8C1902.3,98.8,1900.2,102.6,1902.1,103.1z M1900,91.7
	c-1.2,0.3-1.3,0.3-1.1,1.4C1899.5,92.8,1900,92.5,1900,91.7z M1895.7,108.8c0-0.5-0.3-0.4-0.6-0.3
	C1895.1,109,1895.3,108.9,1895.7,108.8z M1771.7,63.3c-1.1-0.2-1.1,0.7-0.2,0.9C1772,64,1772.2,63.7,1771.7,63.3z M1898.9,93.3
	c0-0.1,0-0.2-0.1-0.3c-0.1,0-0.1,0-0.2,0.1L1898.9,93.3z M1898.7,93.1l-0.2,0.2h0.4L1898.7,93.1z M1897.6,96.7
	c-0.2-1-1.6-0.7-1.8,0.2C1895.9,97.9,1897.3,97.4,1897.6,96.7z M1779.9,50.5c-2.6,3.7,7.7,2.8,5.8,4.1c-9.3,5.4,4.4,1.8,7.2,1.9
	c3.1,1.4,4.8,3.1,8.2,1.2c-3.2-6.2-11.9-3.7-15.6-8.9l-0.1,0.1c0.2-0.1-0.1-0.4-0.2-0.5l0.1,0.5
	C1783.1,48.2,1781.5,49.2,1779.9,50.5z M1790.1,14.6c0.4-0.1,0.8-0.2,1.1-0.4c-0.4-0.7-1-0.2-1.5,0
	C1789.8,14.3,1790,14.6,1790.1,14.6z M1790,28.9c0.1-0.9-1-1.1-1.2-0.1C1789.3,29.1,1789.9,29.8,1790,28.9z M1789.7,42.6
	c3.6-0.4,9.6-3.8,2.6-5.1C1790.6,37.8,1785.3,41.3,1789.7,42.6z M1793.1,71.7c10.6-6-13.9-15.6-11-7.8c2.7,0.2,8.1-1.4,6.2,3.4
	c-0.6,2.4,3,4.9,2.8,8.1C1791.5,74,1791.7,72.6,1793.1,71.7z M1791.2,75.8L1791.2,75.8c-0.1-0.2-0.1-0.3-0.1-0.4
	C1791,75.5,1791.1,75.7,1791.2,75.8z M1797,75.2c-1.5-0.4-1.9,1.3-0.8,2.4C1797,77.1,1798.3,76.2,1797,75.2z M1769.6,80.1
	L1769.6,80.1L1769.6,80.1L1769.6,80.1z M1773.6,74.2c-0.3-4-6.9-10.2-8.7-4.6c0.8,3.4,5.9,6.5,4.7,10.5
	C1771.6,78.7,1773.1,76.6,1773.6,74.2z M1779.4,15.5l-0.4,0.1l0.3,0.2L1779.4,15.5z M1770.9,34.5c3-2.5,8.1-2.6,10.1-6.1
	C1779.5,26.2,1767.8,32.5,1770.9,34.5z M1790.6,32.9c-0.1,2.9,4.6,1.7,5.2-0.4c1.6-2.1-0.8-4.3,0.1-6.2l0,0l0,0c0-0.1,0-0.1-0.1-0.2
	c0,0.1,0,0.1,0,0.2c-1.9,0-4.6,0.6-2.3,2.8C1795.4,31.8,1791.2,31,1790.6,32.9z M1802.5,26.4c1.1,0.1,0.5-0.9-0.2-0.4
	C1802.3,26.1,1802.4,26.4,1802.5,26.4z M1810,41.8c1.9-8.9-2-5.9-8.6-5.4c1.4,1.5,3.6,0,4.7,1.7c-0.8,1.9-7.4,0.8-4.3,3.8
	C1804.4,42,1809.5,46.3,1810,41.8z M1803.3,5.4c-0.1-0.5-0.3-0.5-0.7-0.3C1802.7,5.6,1802.9,5.5,1803.3,5.4z M1805.1,32.7
	c0-0.2-0.2-0.3-0.3-0.5C1803.8,32.5,1805,34.2,1805.1,32.7z M1802.4,51.2c-0.1-0.1-0.1-0.1-0.2-0.2c0,0.1,0,0.2,0,0.3L1802.4,51.2z
	 M1669.4,66.1c-1.9-1.8-4.1,0.9-3.1,3C1667.3,68.1,1670.5,67.7,1669.4,66.1z M1795.4,25c0.1,0.2,0.2,0.4,0.3,0.6
	C1802.2,20.8,1788.4,21.5,1795.4,25z M1807.9,23.3c0.3-0.4,0.2-0.7-0.4-0.8C1807.2,23,1807.4,23.5,1807.9,23.3z M1790.9,19.7
	c-0.4,0.1-0.8,0.3-1.2,0.5c0.5,0.8,1.1,0.2,1.7,0C1791.2,20,1791,19.6,1790.9,19.7z M1800.3,19.9l-0.2,0.3h0.4L1800.3,19.9z
	 M1799,45.5c0.6-0.7,0.1-2.4-0.6-1.2C1798.3,44.7,1798.4,45.8,1799,45.5z M1760.2,75.9c-0.2,0.2-0.2,0.4-0.1,0.7
	C1760.1,76.3,1760.1,76.1,1760.2,75.9z M1568.9,85.5l0.2,0.1l0,0l0,0l-0.1-0.3c0,0-0.1,0-0.2,0C1568.8,85.3,1569,85.4,1568.9,85.5z
	 M1565.5,85.2c1.1,0,2.2,0,3.3,0C1567.3,81.8,1561.9,82.2,1565.5,85.2z M1565.7,94.9c-1.4,0-5.5-0.1-3.9,2
	C1563.9,97.3,1569,96.3,1565.7,94.9z M1568.9,85.5l-0.2-0.1C1568.8,85.7,1568.8,85.8,1568.9,85.5z M1568.9,93.1
	c0.6,0.7,0.9-0.5,0.4-0.9C1568.8,92.4,1568.6,92.7,1568.9,93.1z M1554.5,92.9c1.5,0.5,1.9-0.8,0.8-1.6
	C1554.3,91.2,1553.4,92.5,1554.5,92.9z M1552.2,96.1c0.1,0,0.2,0,0.3,0c0-0.1,0-0.1-0.1-0.2L1552.2,96.1z M1553,96.9
	c1.9,0.1,0.8-1.3-0.6-0.9C1552.6,96.4,1552.7,96.8,1553,96.9z M1554.3,101.6c0.5-0.1,0.6-0.7,0-0.9
	C1553.8,100.8,1553.8,101.4,1554.3,101.6z M1559.4,103.9c0.5,0,1,0.1,1,0.1c1.2,0.2,3.3-0.1,2-1.6
	C1561,101.2,1556.7,102.4,1559.4,103.9z M1571.1,107l-0.4-0.2v0.4L1571.1,107z M1588.7,87.8c0.7,0.4,1.4,0.6,1.8-0.3
	C1589.8,87,1589.2,86.9,1588.7,87.8z M1584.1,105.4c0.6,0.7,1-0.6,0.5-1.1C1584.1,104.5,1583.8,105,1584.1,105.4z M1586.6,59.5
	c0.6,0,0.8-0.3,0.6-0.9l0,0c0.2-0.5-0.2-0.3-0.4-0.5C1586,58.2,1585.7,59.2,1586.6,59.5z M1587.7,68.7c1.6,0.6,2-1.1,2.9-1.9
	C1588.3,64,1584.9,66.4,1587.7,68.7z M1568,102.5c1,0.6,1.5,1,2.1,1.3C1573.1,103.4,1569.7,101.4,1568,102.5z M1585.3,84.9
	c0.8-1.9-0.7-4.3-0.8-6.3C1579.3,79.2,1582.3,83.6,1585.3,84.9z M1552.1,96.1l0.2-0.2c-0.1-0.1-0.3-0.1-0.5-0.2
	C1552,95.8,1552,96,1552.1,96.1z M1580.1,76.1c2.3-1.6-3.7-4.3-4.1-1.6C1576.3,76.4,1578.5,76.7,1580.1,76.1z M1580.2,104
	c-0.2-1-1-0.2-1.5,0.1C1579.1,104.8,1580.2,105.1,1580.2,104z M1573.9,99.7l-0.4-0.1l0.2,0.4L1573.9,99.7z M1578.6,93.3
	c-0.2,0-0.3,0-0.5-0.1c-0.4-0.1-0.9-0.3-1,0.1C1577.6,94.1,1578,93.5,1578.6,93.3C1578.5,93.4,1578.6,93.4,1578.6,93.3
	C1578.6,93.4,1578.6,93.4,1578.6,93.3C1578.6,93.4,1578.6,93.4,1578.6,93.3L1578.6,93.3z M1580.1,85.4c-0.6-1.5-2.6-2.9-3.1-0.6
	C1576.9,86.5,1580.6,87.4,1580.1,85.4z M1583.8,92.2c-1.7,1.9-0.6,6.6,1.6,8.2C1588.7,98.3,1587,93.3,1583.8,92.2z M1516.9,105.5
	l-0.4-0.1l0.1,0.5L1516.9,105.5z M1520.3,103.2c0.6,0,0.8,0.4,0.8,0.9v-0.9c-0.3-0.4-0.7-0.5-1.2-0.3
	C1520.1,103,1520.2,103.1,1520.3,103.2z M1522.9,90.1c1.4,0.4,2.2-1.1,1.2-2.1v-0.1C1517.9,84,1514,87.5,1522.9,90.1z M1524.1,86.4
	c-0.4,0.4-0.1,1,0,1.5C1524.5,87.4,1524.3,86.9,1524.1,86.4z M1550.9,79c2.5,0.1-0.1-2.6-0.8-3.4C1546.7,74.7,1548.2,78.9,1550.9,79
	z M1522.2,75.7l0.3-0.1l0,0l0,0c-0.1-0.1-0.2-0.2-0.2-0.3c-0.2-0.3-0.4,0.1-0.2,0.2C1522.2,75.5,1522.2,75.6,1522.2,75.7z
	 M1509.3,79.7c-0.1-1.6-0.9,0.1,0.4,0.6C1509.6,80.1,1509.3,79.9,1509.3,79.7z M1509.1,92.7c1.9-1,2.3-5.3-0.3-5.4
	C1506.1,87.6,1507.9,91.5,1509.1,92.7z M1510.5,100.8c2.2,2,2.8-1.1,2-2.8C1511.2,98.3,1509.4,99.3,1510.5,100.8z M1512.9,74.6
	c0.5,0,1.5,0.1,1.3-0.7C1513.5,73.3,1511.6,73.7,1512.9,74.6z M1513.9,85.9l-0.4-0.1l0.1,0.4L1513.9,85.9z M1523.5,80.4
	c-0.8-0.6-1.1,0.5-0.8,1.1C1523,81.1,1523.3,80.8,1523.5,80.4z M1542.2,99.3c1.1-1.3-1-1.8-1.6-0.7
	C1539.6,100.5,1541.2,101,1542.2,99.3z M1536.7,75.2c-0.1-0.2-0.3-0.3-0.4-0.5C1534.8,75.8,1537,76.9,1536.7,75.2z M1540.7,100.8
	l0.2-0.1C1540.9,100.6,1540.8,100.7,1540.7,100.8z M1550.5,89.1c0.6-1.2-0.5-4.9-2.3-4.7C1547.3,85.5,1549.1,89.3,1550.5,89.1z
	 M1544.2,66.8c1.2-0.3,0-2.8-1.1-2C1542.1,65.5,1543.6,66.4,1544.2,66.8z M1530.9,100.3c2.3,1.1,3.4-2.4,1.1-3.1
	C1531,96.6,1529.4,99.5,1530.9,100.3z M1527.8,92.9c-1.6,0.3-2.1,2.1-4.3,0.7C1519.8,96.3,1530.3,96.3,1527.8,92.9z M1527.9,78.4
	c0.9-0.2,2-1.3,0.6-1.7C1526.7,76.4,1526.7,77.7,1527.9,78.4z M1535.7,98.1c0.3,0.5,0.7,0.6,0.9,0.1
	C1536.5,97.7,1536.1,97.7,1535.7,98.1z M1536.6,93.7c-0.7-0.8-1.2,0.2-0.6,0.8C1536.4,94.5,1536.8,94,1536.6,93.7z M1534.9,90.4
	c-0.3-0.4-0.6-0.2-0.9,0.1C1534.1,91.2,1535.2,91.2,1534.9,90.4z M1623.5,67.1c0.7-0.3,0.7-0.8,0.3-1.3
	C1623.5,66.2,1622.7,66.8,1623.5,67.1z M1624.7,74c1.3-0.7,2.5-3,1.2-4.2C1624.2,70.2,1623.8,72.7,1624.7,74z M1629.2,77.7
	c-0.3,0.3-0.4,0.7-0.1,1.1C1629.5,78.5,1629.5,78.1,1629.2,77.7z M1629.8,84.1c0.9-0.8,0.6-1.4-0.5-1.8
	C1628.7,83,1628.4,84.8,1629.8,84.1z M1635.6,81.5c0.3-0.9,0.1-1.9-0.4-2.6C1632.1,77,1633,81.4,1635.6,81.5z M1625.3,64.7
	c1.2-4.3,7.3-3.5,8.8-7.8C1629.9,52.9,1619.8,66.8,1625.3,64.7z M1635.9,81.7c-0.1-0.2-0.1-0.2-0.3-0.2l0,0
	C1635.6,81.6,1635.8,81.7,1635.9,81.7z M1623.7,65.7L1623.7,65.7C1623.9,65.6,1623.7,65.7,1623.7,65.7L1623.7,65.7L1623.7,65.7
	C1623.6,65.6,1623.6,65.6,1623.7,65.7C1623.7,65.7,1623.7,65.8,1623.7,65.7C1623.9,65.8,1623.7,65.7,1623.7,65.7z M1618.7,57.4
	L1618.7,57.4L1618.7,57.4L1618.7,57.4c-0.1,1.1-0.3,2.3-0.3,3.4C1620.1,61.7,1618.6,58.3,1618.7,57.4z M1617.1,80.2
	C1617.1,80.2,1617.1,80.3,1617.1,80.2C1617.1,80.2,1617.2,80.2,1617.1,80.2L1617.1,80.2z M1666.4,69.3l-0.2-0.2
	C1666.2,69.2,1666.4,69.2,1666.4,69.3z M1621.3,57.9c6.6-2.6,0.2-2.2-2.6-0.5C1619.5,57.8,1620.2,58.5,1621.3,57.9z M1656.5,73
	c-2.4,1.3-9.4-4-6.3,2.6C1657.4,80.1,1659.5,85.1,1656.5,73z M1617.1,80.3c-1.2,3.6,2.6,4,5.1,5.6c-1.3-3.3,8.2-7.9,2.2-8.5
	c-1.8,2.1-4.4,0.9-6.1,3.1C1617.9,80.9,1617.5,80.8,1617.1,80.3z M1656.7,73c0.1-0.1-0.1-0.1-0.2-0.2L1656.7,73
	c-0.1-0.1-0.2-0.2-0.2-0.2c0,0.1,0,0.2,0,0.3C1656.6,73,1656.6,73,1656.7,73L1656.7,73z M1663.4,67.8L1663.4,67.8L1663.4,67.8
	c0-0.1,0-0.3-0.1-0.4C1663.2,67.5,1663.2,67.7,1663.4,67.8z M1666.4,69.3c0-0.1,0-0.2-0.1-0.3l-0.1,0.1L1666.4,69.3z M1663.8,66.7
	c-0.2,0-0.4,0-0.6,0c0,0.2,0.1,0.5,0.1,0.7C1663.5,67.1,1663.6,66.9,1663.8,66.7z M1638.9,75.3c1.6-0.5,3.8-2.2,3.8-4.1
	C1639.6,69,1630.3,75.2,1638.9,75.3z M1636.4,51.8c-0.1-0.5-0.4-0.4-0.7-0.3C1635.7,52.1,1636,52,1636.4,51.8z M1635.8,81.5
	c0.1,0,0.2-0.1,0.3-0.1C1635.8,81.1,1635.7,81.2,1635.8,81.5z M1643.5,79.6c0.1,0,0.2,0,0.3,0l0,0l0,0l-0.1-0.1l0.1,0.1
	C1643.6,79.4,1643.6,79.5,1643.5,79.6z M1645.1,75.8c-1.7-1.5-2.6,2.6-1.5,3.6C1645.6,78.5,1646,77.5,1645.1,75.8z M1640.2,80.3
	c1.2,1.3,2.1-0.1,3.2-0.7C1642.3,79.6,1640.9,78.9,1640.2,80.3z M1617.1,80.2c-0.8-12.6-7.6-0.6-5.5,3.5
	C1613.4,82.5,1615.2,81.4,1617.1,80.2z M1608,69.3c-1.5-0.4-2.8,2.5-1.7,3.4C1607.6,72.8,1608.7,70.1,1608,69.3z M1605.1,90.3
	c-5.7-5.1-5.1,3.6-11.2,2.3c-2.7,1.1,0.6,3.9,2.1,4.5c2.1-0.8,3.4-3.2,5.9-3.6C1604.4,95.6,1606.2,92.2,1605.1,90.3z M1605.5,86.2
	c0.2-0.5,0.7-1.3,0-1.6C1604.3,84.3,1604.9,85.8,1605.5,86.2z M1616,95.3c-0.3,0-0.5-0.1-0.6-0.1C1615.6,95.3,1615.8,95.5,1616,95.3
	z M1610,62.5c0.1-0.1-0.2-0.4-0.3-0.6C1609,62.3,1609.5,63.8,1610,62.5z M1615.4,95.2c-0.5-0.2-0.9-0.5-1-1
	C1614.5,94.9,1614.7,95.1,1615.4,95.2z M1595.8,58.9l-0.1,0.5l0.6-0.2L1595.8,58.9z M1604.5,94.4l0.2-0.1
	C1604.5,94.3,1604.5,94.3,1604.5,94.4z M1599.9,70.3L1599.9,70.3L1599.9,70.3c0,0.1,0,0.2,0.2,0.1l0,0l0,0
	C1600.1,70.4,1600.1,70.3,1599.9,70.3z M1625.5,90.1c0-0.1,0.1-0.2,0.1-0.3c-0.1,0-0.2,0.1-0.3,0.1L1625.5,90.1z M1594.7,83
	c2.3,5.4,5.7-2.3,0.2,0.2l0.2-0.4C1595.1,82.8,1594.7,83,1594.7,83L1594.7,83L1594.7,83L1594.7,83z M1601.8,68.7
	c0.8-2.5-2.9,0.1-1.8,1.7C1601.4,70.7,1601.3,69.3,1601.8,68.7z M1611.9,53L1611.9,53l0.3-0.1c0-0.1,0-0.2,0-0.3
	C1612.1,52.7,1612,52.9,1611.9,53L1611.9,53z M1617.4,67.8c0.2-1.5-2.1-2.2-2.7-0.9C1615.5,67.2,1616.9,68.8,1617.4,67.8z
	 M1613.3,49.7c-1,0.4-1,1.9-1.1,2.9C1612.6,51.9,1615.4,49.7,1613.3,49.7z M1616.3,71c0.1,0.7,1.4,1,1.4,0
	C1617.7,70.1,1616.4,70.2,1616.3,71z M1625.6,89.8c0.4-0.1,0.5-0.3,0.2-0.3C1625.7,89.5,1625.7,89.6,1625.6,89.8z M1617.2,80.1
	C1617.2,80.1,1617.1,80.1,1617.2,80.1L1617.2,80.1L1617.2,80.1z M1612.9,87.3c-1.3,1.4,1.3,1.8,1.6,0.2
	C1614,87.4,1613.5,87.1,1612.9,87.3z M1609.4,91.8c1.1,2,2.6,2.3,4.7,1.5C1612.2,93.9,1609.5,88.4,1609.4,91.8z M1612.1,52.7
	c-0.1,0-0.2,0.1-0.3,0.1C1611.9,52.8,1612,52.8,1612.1,52.7z M1598,76.1c3.3,0.3,3.2-3.5,2-5.6C1593.7,71.6,1587.6,75.2,1598,76.1z
	 M1614.1,93.3c0.1,0,0.1,0.2,0.1,0.3C1614.2,93.5,1614.2,93.4,1614.1,93.3C1614.2,93.3,1614.2,93.3,1614.1,93.3z M213.6,111.2
	L213.6,111.2L213.6,111.2c0.1-0.1,0.4-0.1,0.2-0.3l0,0l0,0C213.7,111,213.6,111,213.6,111.2z M216.5,114.4c0.2-1.4,0.4-2.6,0.5-3.7
	C214.2,108.3,213.6,112.4,216.5,114.4z M212.5,111.3c1.7,0.4,2.1-3.4,0.4-3C211.4,108.8,210,111.4,212.5,111.3z M220.9,128.7
	c0.4,0,0.7-0.4,0.4-0.7C220.5,127.4,220,128.5,220.9,128.7z M220.9,141.2c-1.5-0.1-4.7,1.3-3.3,3
	C219.9,144.5,224.4,143.7,220.9,141.2z M219.3,100.9c0.3-0.3,0.5-0.8,0.1-1.2C218.8,99.7,218.6,100.7,219.3,100.9z M212.4,125.2
	c-3.1,5.8,3.3,3.1,4.4-0.5C217.1,122.1,212.3,122.1,212.4,125.2z M202.2,118.2c1.1-0.5-0.2-1.1-0.8-0.6
	C201.3,118.1,201.7,118.3,202.2,118.2z M204.3,128.8c-0.2-0.9,0.2-3.2-1.4-2.3C202.7,127.4,204.1,128,204.3,128.8z M204.4,129.9
	L204.4,129.9c0,0,0-0.1,0-0.2C204.4,129.7,204.3,129.8,204.4,129.9z M204.3,128.8c0,0.3,0,0.6,0,0.9
	C204.5,129.3,204.4,129,204.3,128.8z M207.5,132.5c-0.3,2.7,2,5.8,4.7,3.3c-0.8-2.3-4.6-7.9-7.7-6
	C206.1,130,206.9,131.2,207.5,132.5z M228.5,129.1c0.4-0.8-0.5-1.6-1.2-1.4C227.4,128.2,227.9,130.1,228.5,129.1z M233,132.5
	l-0.4-0.1l0.2,0.5L233,132.5z M234.4,92.2h-0.5l0.2,0.5L234.4,92.2z M222.3,121.3c0.4-0.3,0.3-1.5,0.1-2.1
	C222.3,119.8,221.3,121.3,222.3,121.3z M235.2,148.3l0.3-0.3c0-0.1-0.1-0.2-0.2-0.2L235,148h0.2V148.3z M230.8,122.8
	c1,0.4,1-1.4,1.3-2C231.4,117.2,227.7,121.5,230.8,122.8z M236.6,135.4c-1-0.3-1.7,1.5-0.9,2C236.3,137.5,237.9,135.8,236.6,135.4z
	 M224.1,134.6c2.8,0.2,0.4-2.7-0.6-0.3C223.7,134.4,223.9,134.5,224.1,134.6z M222.4,119.1l1.4-0.7c-0.5,0.2-1,0.4-1.5,0.6
	c0,0.1,0,0.2,0,0.2C222.4,119.1,222.4,119.1,222.4,119.1z M201.6,134.7c0.5-1.8-1.7-0.9-0.5,0.4C201.3,135,201.5,134.9,201.6,134.7z
	 M227.8,125.8c0.1-0.2-0.5-0.6-0.7-0.9c-1.3,0.8-0.4,1.6,0.1,2.5C227.4,126.9,227.6,126.4,227.8,125.8z M227,127.7L227,127.7
	c0.1,0,0.2,0,0.3-0.1v-0.1l0,0c0,0,0-0.1-0.1-0.1C227.1,127.5,227,127.6,227,127.7L227,127.7z M237.8,121.9
	c-0.2-1.2-1.5-0.2-1.8,0.4C236.7,122.8,237.7,123,237.8,121.9z M194.7,131.5c-0.1,1.7,2.7,2.6,3.5,1.1
	C197.8,131.1,195.6,129.7,194.7,131.5z M135.9,98.9c0.7,1,2.4,3.9,3,1.3C139.5,98.4,136.2,96.9,135.9,98.9z M152.5,108.2
	c-1.4,4.5,1.2,3.5,4.3,3C159.2,108.9,154.4,103.2,152.5,108.2z M156.9,126l0.2-0.1C156.9,125.8,156.9,125.8,156.9,126z M157,126
	c0-0.1,0-0.1,0-0.2l-0.2,0.1C156.9,126,157,126,157,126z M151.7,90.7l0.2,0.1l0,0C153.1,90.3,151,89.6,151.7,90.7L151.7,90.7z
	 M138.9,95.6c1.4-0.5,0-1.4-0.8-1.6C137.6,94.8,137.5,96.1,138.9,95.6z M146.1,106.6c3.9,10.7,6.4-6.4-1.9-2.9
	C145.2,104.4,145.9,105.4,146.1,106.6z M149.8,112c-0.1,2.3,1.4-0.2-0.2-1.1C149.6,111.3,149.7,111.7,149.8,112z M149.4,110.7
	l0.2-0.2C149.4,110.5,149.5,110.6,149.4,110.7z M149.4,110.7c0.1,0.1,0.1,0.2,0.2,0.3c0-0.1,0-0.3,0-0.4L149.4,110.7z M152.6,103
	c1.1-0.4,2.1-0.9,3.1-1.4C153.8,99.6,149,101.3,152.6,103z M183.2,101.4c-1.4,2.4,2.3,4.9,3.1,7.3
	C187.5,105.7,186.6,102,183.2,101.4z M158.5,127.4c-0.1,0-0.2,0-0.1,0.1L158.5,127.4z M195.4,112.4c0.7-0.6-0.9-1.4-1.3-0.8
	C193.9,112.1,194.9,112.8,195.4,112.4z M186.3,108.7L186.3,108.7c-0.1,0-0.1,0-0.1,0.1L186.3,108.7z M313.5,135.5l0.3-0.4l-0.4-0.1
	L313.5,135.5z M191.1,98.1h-0.5l0.2,0.5L191.1,98.1z M158.3,115c2.4,0.4,0.4-2.7-0.6-1.1C157.5,114.5,157.7,114.9,158.3,115z
	 M185.7,132.5c1.1-0.5,0.1-1.5-0.8-1.7C183.8,131.1,184.8,132.7,185.7,132.5z M176.7,113L176.7,113L176.7,113z M176.7,113
	c6.6,1.4,1.4,5.3,7.1,12.5c3.1,4.9,2-6.6,6.6,5.9c4.3,1,1.9-15.4-0.4-17.5c-1.9-2,0.9-6.3-3.8-5.1c-0.2,1.8-1,2.6-2,1.9
	c-2.9-0.4-3.1-4.5-5.7-4.4C177.2,108.5,181.7,112.4,176.7,113z M186.3,108.7l-0.1,0.1C186.3,108.8,186.3,108.8,186.3,108.7z
	 M158.4,127.4c0-0.9-0.6-1.2-1.3-1.3C156.9,126.8,157.7,127.4,158.4,127.4z M281.8,135.7c1.2-0.3,1-2.3-0.1-2.4
	C279.9,133.7,280.2,136.1,281.8,135.7z M280.7,142c1.6-0.3-1.1-2.7-1.7-2.1C278.3,141.1,279.2,142.3,280.7,142z M283.9,123.4
	l-0.4,0.2l0.4,0.3V123.4z M284.7,116.9c0.5,0,0.1-0.5-0.3-0.5C284.3,116.8,284.4,117,284.7,116.9z M288,97.5c-0.5-2.8-2.5-1-1.1,1
	C287.4,98,288,97.8,288,97.5z M271.5,119.9c2,0.3,2.2-3.2,0.1-2.9C269.9,117.5,269.8,119.3,271.5,119.9z M271.7,141.2
	c1.3-1.6-0.9-3.7-2.4-2.3C270.1,139.6,270.6,141,271.7,141.2z M270,129.4l-0.1,0.4l0.4-0.1L270,129.4z M275.6,131.7
	c0.1-1.1,0.3-2.3-0.9-3C273.4,129.9,273.7,131.5,275.6,131.7z M286.9,126.3c-0.5,0.9,0.9,2.3,1.9,2.1
	C289.9,127.9,287.7,126,286.9,126.3z M269.3,123.6c0-0.4-0.4-0.8-0.7-1.1c-0.9,0.8-0.9,1.4,0,2.2C268.9,124.3,269.3,124,269.3,123.6
	z M277.1,106.1c0.4-0.9,0.1-2-0.7-2.6C274.4,103,275.8,107.6,277.1,106.1z M306.3,140l-0.5,0.2l0.4,0.3L306.3,140z M301.9,117.7
	l0.1-0.1C301.5,117,301,118.2,301.9,117.7C301.9,117.8,301.9,117.8,301.9,117.7C301.9,117.7,301.9,117.7,301.9,117.7
	C301.9,117.6,301.9,117.7,301.9,117.7z M301.6,119c0.1-0.4,0.1-0.8,0.2-1.2C301.5,118.2,300.6,118.4,301.6,119z M307.9,135.1
	c-1.8-1.8-8-1.2-4.7,2.3C304.6,136.7,307.4,137,307.9,135.1z M807.2,61.2c1-0.2,0.1-1.2-0.3-0.4C807,60.9,807.2,61.2,807.2,61.2z
	 M294.5,125.7H294l0.2,0.6L294.5,125.7z M300.5,129.8c0.1-0.2,0.2-0.4,0.1-0.5C300,128,299.4,130.4,300.5,129.8z M297.2,144.6
	c-1.3-2.1-5.1,0.8-3.1,2.3C295.5,147.6,296.8,145.7,297.2,144.6z M290.7,122.7c1.1,0.2,1.7-1.3,0.8-1.9
	C290.7,120.1,289.3,122.2,290.7,122.7z M297.7,123.3c-0.1-0.4-0.2-0.8-0.4-1.2c-0.8,0.4-0.3,1-0.1,1.6
	C297.4,123.6,297.7,123.4,297.7,123.3z M287.8,136.5c0.2,3.3,3.8-1.7,1.3-1.4C288.6,135.6,288.1,136.1,287.8,136.5z M266.2,98.5
	c0.2-0.1,0.4-0.1,0.6-0.2C266,96.7,264.5,98.2,266.2,98.5z M249.3,134c0.4,0.1,0.6,0,0.6-0.5C249.5,133.4,249.2,133.7,249.3,134z
	 M251.2,132.3c0-0.7-0.9-1.2-1.2-0.2C249.5,133.6,251.2,133.9,251.2,132.3z M249.9,133.4L249.9,133.4c0,0.1,0,0.1,0,0.1h0.1
	L249.9,133.4z M249.9,133.4l0.1,0.1C250,133.4,250,133.4,249.9,133.4z M249.3,107.2L249.3,107.2c0.1-0.1,0.2-0.2,0.3-0.2h-0.4
	c-0.2-0.6,0.7-1.7-0.5-1.7C246.9,105.3,248.6,106.8,249.3,107.2z M248.7,144.7c0.7,0.7,1.1,0.7,1.6-0.1
	C249.7,144.4,249.1,143.8,248.7,144.7z M239.9,146.5c0.2,3.1,5.3-0.4,2.3-1.1C240.7,145.4,240.1,145.7,239.9,146.5z M241.2,143.8
	c1.9,0.6,3-3.1,1.5-4C239.8,139,238.7,142.6,241.2,143.8z M249,113.5c0-0.1,0-0.2,0.1-0.3c-0.2,0.1-0.3,0.2-0.5,0.2
	c0.1,0,0.2-0.1,0.3-0.1C249,113.4,249,113.5,249,113.5z M247.2,114.2c0.5-0.3,0.9-0.5,1.4-0.8c-1.1,0.3-2.2,0.3-2.3,1.7
	C246.8,115.1,247,114.5,247.2,114.2z M249,113.5c-0.2,0.7-0.4,1.4-0.4,2.1C250.3,118,251,114.5,249,113.5z M252.4,138.4
	c0.1-0.2,0.2-0.4,0.1-0.6C251.8,136.3,251.3,139.1,252.4,138.4z M261.1,131.4c4.2,1.5,3.9-4.9,0.3-3.5
	C259.2,128.7,258.4,130.7,261.1,131.4z M258.5,143l-0.4-0.1l0.2,0.4L258.5,143z M261.1,137.2c0,3.1,3.3-0.3,3.2-1.8
	C263.4,134.8,261.5,136,261.1,137.2z M264.4,118.5c0.4-0.3,1.6-0.6,1-1.2C264.5,117,263.2,117.8,264.4,118.5z M264.8,123.4
	c0-0.4-0.4-0.8-0.6-1.2c-0.8,0.8-0.8,1.5,0,2.3C264.4,124.2,264.8,123.8,264.8,123.4z M254.8,95.5c-0.1,0.1,0,0.2,0.1,0.3
	c0-0.1,0-0.3,0-0.4C254.8,95.5,254.8,95.5,254.8,95.5C254.8,95.6,254.8,95.6,254.8,95.5z M253.1,142.1l-0.2,0.1
	C253.5,142.8,253.1,142.3,253.1,142.1z M255.1,134.4l0.4-0.1l-0.3-0.3L255.1,134.4z M240,110.7c0.7,0.4,1.7-0.6,0.8-1.1
	C240,109.1,239.3,110.2,240,110.7z M254.4,95.7c0,0,0.2-0.1,0.3-0.2C254,95.4,253.9,95.5,254.4,95.7z M255.2,96.1
	c-0.1-0.1-0.2-0.2-0.3-0.3c0,0.2,0,0.5,0,0.7C255,96.3,255.2,96.2,255.2,96.1z M192.6,106.8c-0.1-0.4-0.3-0.9-0.4-1.3
	c-0.9,0.4-0.3,1.1-0.1,1.8C192.3,107.1,192.6,106.9,192.6,106.8z M430.2,100.7c0-0.1,0-0.2,0-0.3c-0.1,0-0.1,0.1-0.2,0.1
	c0.1,0.1,0,0.2,0,0.3C430.1,100.8,430.2,100.8,430.2,100.7L430.2,100.7z M356.7,128.8h2.7c-0.3-0.5-0.5-1.1-0.8-1.6
	C357.5,125.6,356.7,127.7,356.7,128.8z M431.2,99c-0.7-1.6-1.4,0.4-1,1.4C430.6,100.1,431.5,99.8,431.2,99z M356.6,129.1
	c0-0.1,0-0.2,0-0.3h-0.3L356.6,129.1z M347.6,141c0-0.1-0.1-0.2-0.2-0.2c0.1,0.1,0,0.3,0,0.5C347.5,141.2,347.6,141.1,347.6,141
	L347.6,141z M822.9,94.3c-0.1-0.1-0.4-0.3-0.5-0.1h0.1c-0.1,0-0.1,0.1,0,0.2C822.5,94.2,822.7,94.3,822.9,94.3z M780.9,96.8
	c1-2.4-4.6-6.2-3.8-2.4c0.7,1.2,2.5,2,1.4,3.5C779.4,98,780.7,97.7,780.9,96.8z M801.9,94.4c0,0.1,0,0.1,0,0.2h0.1L801.9,94.4z
	 M230.8,147.6c0,0.3,0,0.5,0,0.8c0.1-0.3,0.3-0.6,0.4-0.9C231.1,147.6,230.9,147.6,230.8,147.6z M622.9,100.2c0,0.1,0.1,0.2,0.2,0.3
	l0,0c0,0.1,0.1,0.1,0.2,0.2c0-0.1-0.1-0.2-0.2-0.2C623.1,100.3,623,100.3,622.9,100.2z M591.9,93.1c0.1,0,0.2,0.1,0.3,0.1
	c0-0.1,0-0.2,0-0.3L591.9,93.1z M158.4,127.5c0,0,0.1,0,0.1,0.1c0-0.1,0-0.1,0-0.2L158.4,127.5z M18.3,127.9l-0.5,0.2l0.5,0.3V127.9
	z M13.6,122l-0.1,0.4l0.4-0.1L13.6,122z M18.7,113.1c-1.4-0.9-6.2-0.4-4.4,1.7C15.4,114.4,16.4,114,18.7,113.1z M30.3,111.8
	c0.2-1.1-0.3-1.5-1.4-1.7C27.7,110.6,29.4,112,30.3,111.8z M17,124.6c-1.4,0.7,0.7,1.7,1.3,0.6C17.9,125,17.4,124.8,17,124.6z
	 M97.8,129.4c0.2-0.4,0.4-0.9,0-1.4C97.4,128.5,97.6,129,97.8,129.4z M98.3,131.1c0.1-0.6-0.2-1.2-0.5-1.7
	C97.6,130,96.7,131.4,98.3,131.1z M89.3,133.5c0.1,0,0.2,0,0.2,0.1C89.5,133.5,89.5,133.5,89.3,133.5L89.3,133.5z M101.6,138
	c0-0.2-0.1-0.1-0.3-0.2c0,0.1,0,0.1,0,0.2C101.4,138,101.5,137.9,101.6,138z M90.3,136c-0.2-0.8,0.2-2.2-0.8-2.4
	C89.8,134.3,90.1,135.1,90.3,136C90.3,135.9,90.3,135.9,90.3,136C90.3,135.9,90.3,135.9,90.3,136L90.3,136z M22.8,113.8
	c1.5-0.6,0.8-2.5,0-3.3C20.9,110.8,21.2,113.4,22.8,113.8z M102.8,121.5c0.1,0.1,0.2,0.1,0.3,0.2c0-0.2,0-0.3-0.1-0.5L102.8,121.5z
	 M1760,77.1l0.4-0.1C1760.2,76.9,1760.1,76.9,1760,77.1z M1669.7,77.1L1669.7,77.1L1669.7,77.1L1669.7,77.1
	C1669.7,77,1669.6,77.1,1669.7,77.1L1669.7,77.1L1669.7,77.1z M839.8,100.2c0,0.1,0.1,0.1,0.1,0.2c0-0.1,0.1-0.3,0.1-0.4
	L839.8,100.2z M113.8,125.6c3.4-1.4-3.4-4.3-1.8-0.8C112.3,125.4,113.1,125.8,113.8,125.6z M331.6,140.6c1,0,0.7-1.3,0-1.5
	C330.7,139.3,330.8,140.5,331.6,140.6z M102.8,121.4l0.2-0.3C102.9,121.2,102.8,121.3,102.8,121.4z M101.6,134.8c-1-3-3.3,1-0.1,0.1
	c-0.3,1-0.2,3.7,1.4,2.9c1.8-0.9,3.9-1,5.7-0.2c4.4,1,4.1-7.5-0.5-3.4c-3.7,0.7,2.9-9.2-4.9-12.6c-0.6,2.4,2.7,4.9,0.5,6.9
	C102.2,131.1,105.6,133.5,101.6,134.8z M110.9,129.4c-0.2,1.4,2.9,2.2,3.7,1.7C116.2,129.1,111.3,126.4,110.9,129.4z M1842,98
	L1842,98C1842.1,98,1842.1,98,1842,98z M1281.2,104.1c0,0.1-0.1,0.1-0.1,0.2c0.1,0,0.2,0,0.3-0.1L1281.2,104.1z M1293.1,103.1
	c-0.1-0.1-0.1-0.2-0.2-0.4c0,0.3,0,0.6,0,0.9C1293,103.5,1293.1,103.3,1293.1,103.1z M1055.7,79.4L1055.7,79.4
	c0.1-0.1,0.1-0.1,0.1-0.2L1055.7,79.4z M858.9,94.7c0.1,0,0.2-0.1,0.4-0.1c0-0.1-0.1-0.1-0.1-0.2L858.9,94.7z M854.4,94.4
	c0,0.1,0,0.2,0,0.3l0.1-0.1L854.4,94.4z M1615.9,95.4C1615.9,95.4,1615.9,95.5,1615.9,95.4C1616,95.4,1616,95.4,1615.9,95.4
	L1615.9,95.4z M1669.6,79.9c0-0.9,0-1.8,0-2.7C1668.3,78.3,1667.7,78.7,1669.6,79.9z M1625.3,90c0,0.1,0,0.3,0,0.4
	C1625.5,90.2,1625.4,90.1,1625.3,90z M1604.5,94.5c0.1,0.1,0.2,0.1,0.2,0.2c0-0.1,0-0.2-0.1-0.4L1604.5,94.5z M1540.7,100.9
	c0.1,0.1,0.3,0.1,0.4,0.2C1541,100.9,1541,100.7,1540.7,100.9z M1666.2,69.2c-3.6-4.1-14.6,5.4-6.3,4c10-5.6-3.2,11.2,9.6,3.8
	C1666.3,75.9,1666.2,72.1,1666.2,69.2z M127.6,104c1.5-0.6,1-3.8-0.7-2.6C126.5,102.4,126.2,103.6,127.6,104z M90.8,95.8
	c-1.3-2.3-1.3,1.5-0.8,2.5C90.6,97.6,90.9,96.7,90.8,95.8z M90.4,114.4c1.3-1.8-0.3-6.1-2.8-4.5C86.2,111.8,88.2,114.4,90.4,114.4z
	 M90,98.4C90,98.3,90,98.3,90,98.4C89.9,98.4,89.9,98.4,90,98.4z M92.9,137.5c0.7-0.3,1.9-1.4,0.7-2
	C92.4,135.2,92.7,136.8,92.9,137.5z M90,98.4L90,98.4c0.1,0.4,0.7,0.5,1,0.2C90.7,98.4,90.4,98.2,90,98.4z M94.8,127.5
	c-0.2-1.7-2.2-1.4-3.4-0.8C91.7,128.3,94.2,129.5,94.8,127.5z M86.6,129c-0.3-0.6-0.7-1.3-1-1.9c0.3,0.7,0.6,1.4,0.9,2L86.6,129z
	 M85.3,126.4L85.3,126.4C85.3,126.4,85.3,126.5,85.3,126.4C85.3,126.5,85.3,126.4,85.3,126.4z M86.6,129.1c0.1,1.8,1.2,3.4,2.8,4.2
	C90.1,131,90,128.7,86.6,129.1z M86.6,129.1V129V129.1C86.5,129.1,86.5,129.1,86.6,129.1z M89.5,133.3c0,0-0.1,0-0.1-0.1
	c0,0.1,0,0.1-0.1,0.2L89.5,133.3z M109.5,102.3c1.3-0.1,0.5-2.5-0.5-1.2C108.9,101.4,109.2,102.2,109.5,102.3z M113.4,84.9
	c0.2,0.1,0.4,0.1,0.6,0C114.9,83.9,112.4,84.1,113.4,84.9z M119.6,98.2c0.1,0.5,0.3,0.9,0.5,1.3c0.7-0.8,0.7-1.7,0.1-2.6
	C120,97.4,119.6,97.8,119.6,98.2z M135.9,84.5l-0.1,0.4l0.5-0.1L135.9,84.5z M110.4,95.2c-0.1-0.6-0.3-0.6-0.8-0.4
	C109.7,95.5,109.9,95.5,110.4,95.2z M118.2,90.4c0.9,0.6,2.6-0.2,2.3-1.3C119.8,87.7,116,89,118.2,90.4z M97.5,112.7
	c2.2-1.3-1.5-4.1-3-4.3C91.7,109.7,95.4,113,97.5,112.7z M91.8,98.4c-0.3-0.1-0.6-0.1-0.8,0.2C91.4,99.1,92.2,99.5,91.8,98.4z
	 M85.2,126.4L85.2,126.4c-0.2-0.6-0.4-1.3-1.3-1.2C83,126,84.3,127.8,85.2,126.4z M97.4,89.4c-0.7-1.1-2.1-0.6-1.9,0.7
	C95.9,91.3,96.7,89.8,97.4,89.4z M97.8,96.7c0.7-0.5,0.3-1.1,0-1.7C97.1,95.6,97.2,96,97.8,96.7z M109.3,87.4
	c-0.8-1-1.3-0.9-2.1,0.1C108,88.4,108.5,88.3,109.3,87.4z M51.5,116.5c0,0.1,0,0.1,0,0.2C51.8,116.7,51.8,116.7,51.5,116.5z
	 M50.8,133.5c0.4,0.1,0.7,0.2,1.1,0.3c3.1,0.4,2.9-4.7-0.4-4.5c-1.3,0.1-2.5-0.9-2.2-2.3c0.7-1.5,2.5-3.1,0.3-4.4
	c-2.5-1.8-1.4,3.2-4,2.3c-5.4-5.5-10.7,0.2-7.1,6.3c0.4,0.7,2.6,1.2,2.9-0.2c-0.8-10.5,5.8-2,1.7,3.2c1,3.2,5.1-1.3,7.5-0.7
	c0-0.1-0.1-0.1-0.2-0.1c0.1,0,0.1,0,0.1,0c-0.2-0.8-0.2-1.4,0.8-1.4C51.9,132.5,51.5,133.5,50.8,133.5z M29.1,130.9
	c-1.2,1.7,2.2,1.5,2.3,3l0,0c0,0,0,0,0,0.1l0,0C40.4,138.7,34.3,125.7,29.1,130.9z M51.3,116.4L51.3,116.4L51.3,116.4
	c0.1,0,0.1,0,0.2,0.1c9.6,1.2-1.8-11.3-7.6-9.4C45.3,111.2,56.7,111.1,51.3,116.4z M55.9,118c0.1,0.1,0.4-0.1,0.6-0.2
	C55.8,116.2,54.1,117,55.9,118z M55.1,116.8c0.1,0.1,0.1-0.1,0.2-0.2l-0.1,0.1l0.1-0.1C55.2,116.6,55.1,116.6,55.1,116.8z
	 M40.9,117.8c0.1-1.3-2.1-2.1-3.2-1.4C37.9,117.8,40.1,118.8,40.9,117.8z M46.6,113.5c0.4-2.9-5-1.8-5.6-4.7
	c-1.9-1.2-5.4-1.5-6.4,1.1C38.4,110.7,43.2,116.9,46.6,113.5z M60.5,117.9l0.6-0.1l-0.4-0.3L60.5,117.9z M79.2,91.9l-0.1,0.5
	l0.6-0.2L79.2,91.9z M46.9,117.9c0-0.8-1.7-0.8-1.8-0.1C45.5,118.6,46.3,118.1,46.9,117.9z M44.9,100.8c0.2-0.8-0.5-0.7-1.1-0.9
	C43.6,100.7,44.3,100.6,44.9,100.8z M32.1,136.5c0.5-0.8-0.5-1.8-0.7-2.6C31.5,134.8,30.5,137.2,32.1,136.5z M66,125.1
	c3.6,0.6,2.5-4.7,5.6-4.9c2-0.5,2-0.7,1.4-2.4c-0.5-1-1.4-2.8,0.6-2.7c4.2,1.5,2.5-4.1,5.4-2.4c3.3,3.5,3.2-1.3,5.7-3
	c-5.8,0.5-18.5-2.9-15.8,6.9c0.6,3.8-4.2,1.2-5.1,2.8C63.9,121.4,63.4,124.4,66,125.1z M66.2,91.3l-0.3,0.5l0.5,0.1L66.2,91.3z
	 M69.7,100.8c1.5-1,0.5-2-0.8-1.3C68.2,100.1,68.6,101.8,69.7,100.8z M82.9,122.3l-0.3-0.3l-0.1,0.4L82.9,122.3z M78.7,98
	c1,0.2,2-1,1.4-1.9C79,95.2,77.4,97.3,78.7,98z M63.7,130.7L63.7,130.7L63.7,130.7l0.1-0.1l0,0c0,0-0.1,0-0.1-0.1
	C63.7,130.6,63.8,130.7,63.7,130.7z M62.7,114.8c1.8-0.3,0-2.5-0.1-3.6C59,105.2,55.8,111.6,62.7,114.8z M62.5,129
	c0.2,0.7,0.6,1.2,1.2,1.5C63.7,129.8,63.2,129.2,62.5,129z M78.4,128.8c5.2-0.8,0.8-21.9-1.4-7c-4.6,1.9-1.3,1.6-0.4,4
	C76.4,127.3,77.5,128,78.4,128.8z M62.5,128.8c-0.2,0.1-0.1,0.1,0.1,0.2C62.5,128.9,62.5,128.9,62.5,128.8L62.5,128.8z M55,126.9
	c1.3,1.1,2.4-2.2,3.6-0.1c2.9,6.4,4.2,0.1,1.7-3.1C56.9,120.6,52.6,122.3,55,126.9z M311.4,143.6c0.4-0.1,0.7-0.2,1.1-0.4
	C312.3,142.1,310.3,143,311.4,143.6z M713,86.5c0-0.2-0.2-0.3-0.2-0.5c-0.4,0.3-0.3,0.6-0.1,0.9C712.8,86.8,713,86.7,713,86.5z
	 M711.2,97.7c0.8-1-0.1-2-1.2-1.4C709.4,97,710.6,97.5,711.2,97.7z M717.6,93.6c0-1-1.1-0.9-1.4-0.2
	C716.8,93.8,717.3,94.5,717.6,93.6z M716.9,90.1c0.3,0.4,0.6,0.1,0.6-0.4C717.2,89.4,716.9,89.7,716.9,90.1z M706.9,102.7l-0.5-0.1
	l0.2,0.5L706.9,102.7z M702,104.4c-0.2,0.5-0.6,1.4,0.2,1.6C702.9,105.9,702.8,104.1,702,104.4z M705.7,91.6
	c-1.2-0.6-2.3,0.6-1.9,1.8C704.2,92.8,706.6,92.7,705.7,91.6z M695,101c0.1-0.1-0.1-0.4-0.1-0.6C694.1,100.5,694.4,101.7,695,101z
	 M717.2,86.4c0.2-0.3,0.3-0.7,0.4-1c0-0.1-0.2-0.3-0.4-0.5C716.9,85.5,716.5,86,717.2,86.4z M703.5,93.7L703.5,93.7L703.5,93.7
	l0.2-0.2v-0.1C703.7,93.6,703.5,93.5,703.5,93.7z M703.6,93.3c-0.3,0.1-0.3,0.2,0,0.2V93.3z M703.5,96.7c-0.2-0.8-2.1-1-2.6-0.3
	C701.1,97.6,703.4,97.5,703.5,96.7z M726.1,87.7c-2.9-1.7-6.3-0.5-4.4,3.1C723.7,92.7,724.9,88.9,726.1,87.7z M726.1,87.7
	L726.1,87.7C726.1,87.7,726.2,87.7,726.1,87.7L726.1,87.7z M730.8,105c3.6,4.3,3-1,4.5-3.4c0.4-0.4-0.1-0.9-0.6-1.1
	c-3.9-0.6-3.6-1.7-5.5-4.1c5.7-5-4.4-4.7-4.6,0.5c-0.3,2-2.3,2.2-3.9,2.8C723.5,103.1,728.4,101.7,730.8,105z M726.2,87.7
	C726.2,87.7,726.2,87.6,726.2,87.7C726.1,87.6,726.2,87.7,726.2,87.7z M722,60.2c0.1-0.1-0.1-0.4-0.1-0.6
	C721.1,59.6,721.4,61,722,60.2z M721.5,107.4c0.8,0.1,1.7,0.3,2.5,0.4C723.9,105.2,721.9,104.5,721.5,107.4z M719.8,81.5
	c1.3-0.8-0.6-3.1-1.2-4C718,79.5,718.4,80.6,719.8,81.5z M720.5,99.7c0,0.1,0.1,0.2,0.2,0.1c-0.2-0.4-0.1-1-0.2-1.4
	C720.5,98.4,720.5,99.7,720.5,99.7L720.5,99.7z M716.9,104.3c0.8,0.2,1.2-0.6,1.7-1C720,100.8,715,103.2,716.9,104.3z M724.4,107.9
	l-0.2,0.2C724.3,108.2,724.3,108,724.4,107.9z M724.1,108.1l0.3-0.2c-0.1,0-0.2,0-0.3-0.1C724,107.9,724,108,724.1,108.1z
	 M687.2,104.9c3.6-0.8,3.2-5.8-0.6-5.9C686.9,100.9,685.9,103.6,687.2,104.9z M627.1,95.5c0-0.6-0.3-0.6-0.8-0.4
	C626.4,95.7,626.7,95.7,627.1,95.5z M635.4,94.2c3.5,1.4,1.1-3.7-0.5-1.2C634.6,93.5,634.9,94.1,635.4,94.2z M644.2,109.2l0.2,0.2
	C644.4,109.2,644.3,109.2,644.2,109.2z M642.6,99c8.4,4,5.3-3.8-0.8-0.8C642.1,98.5,642.3,98.9,642.6,99z M648.1,108.6
	c-0.7-0.7-1.2-1-2-1.4C642.4,106.9,645.5,111.2,648.1,108.6z M623,100.3c0.1,0,0.2,0.1,0.3,0.1C623.1,100,623,100,623,100.3z
	 M592.1,92.9c-0.1,0-0.2,0-0.2-0.1c0,0.1,0,0.2,0,0.3L592.1,92.9z M618,98.1c0.4,0.4,1-0.3,0.5-0.8C617.9,96.7,617,97.8,618,98.1z
	 M591.9,92.8c0-0.6,0-1.9-0.9-1.5C590.7,92.2,590.9,92.7,591.9,92.8z M607.7,90.5l-0.1,0.4l0.4-0.1L607.7,90.5z M614,88.6
	c0-0.4-0.1-0.6-0.5-0.4C613.5,88.6,613.7,88.9,614,88.6z M658.8,97.4c-1,0.4-3.5,0.1-3.5,1.4C656.3,101.5,660.3,99.4,658.8,97.4z
	 M679.5,101.5c4.2,0.8,2.8-7.8,3.2-10.2l0,0c-0.1,0-0.2,0-0.2,0v-0.1c0,0,0,0.1-0.1,0.1C677,90.8,675.9,99,679.5,101.5z M686.3,99
	l0.2-0.1C686.4,98.9,686.4,98.9,686.3,99z M685.5,98.4c-0.2,0.1,0.4,0.6,0.9,0.5C686.5,98.1,686.4,97.6,685.5,98.4z M686.5,99.1
	c0-0.1,0-0.1,0-0.2l-0.2,0.1C686.4,99,686.5,99.1,686.5,99.1z M728.5,86.5c2.7-2.8-5.2-2.9-2.4,1.1
	C726.7,86.7,727.6,86.6,728.5,86.5z M664,105.4c0.1,0.1,0.2,0.4,0.4,0.4s0.3-0.2,0.5-0.2C664.7,105.1,664.4,105.2,664,105.4z
	 M653.9,106.8c1.3,0.9,3.2-0.3,1.7-1.6C654.3,104.5,651,105.5,653.9,106.8z M693.7,109.2c0.6-0.1,1.5,0.1,1.7-0.7
	C694.6,108.3,691.9,108.5,693.7,109.2z M676.6,109.8c-0.8-2.6,3.9-2.4,3.4-4.9c-4.5-1-8.4-0.5-4.5,5.3
	C675.7,110.4,676.6,110.1,676.6,109.8z M667.3,95.2c-1.1-0.9-4.9,0.6-4,2.1C666,98.4,670.6,98.5,667.3,95.2z M644.4,109.4l-0.2-0.2
	C644.3,109.3,644.3,109.5,644.4,109.4z M739.7,66.3l-0.3,0.4h0.4L739.7,66.3z M786.5,80.2c-1.5-0.1-1.1,3.2-0.5,4.2
	C788.9,85,789.2,80.4,786.5,80.2z M788.9,96.5L788.9,96.5C788.8,96.4,788.8,96.5,788.9,96.5c0-0.2,0-0.4,0-0.5
	c-0.1,0.1-0.2,0.3-0.2,0.4l-0.1-0.1c-0.1,0-0.1,0.1-0.2,0.1C788.6,96.4,788.7,96.4,788.9,96.5z M787.9,69.9
	c-0.8,0.3-1.6,2.3-0.8,2.9C788.5,73.1,789.1,70.4,787.9,69.9z M786.8,97.1c0.6,0.4,1.3-0.3,1.7-0.7
	C787.8,96.2,786.1,95.8,786.8,97.1z M781.3,91.9c2.1,0.8,1-3,0.1-3.7C778.8,86.2,779.1,91.6,781.3,91.9z M785,61
	c0-0.1-0.1-0.3-0.2-0.5c-0.3,0.3-0.3,0.5-0.1,0.9C784.8,61.3,785,61.2,785,61z M772.3,96.3c3.1-1.1,1.5-8.7-1.2-4
	C771.4,93.5,771.1,95.7,772.3,96.3z M771.4,71l-0.3,0.3l0.4,0.1L771.4,71z M777.3,68.2c0.3-0.4,0.4-0.8,0.1-1.2
	C776.7,66.9,776.6,68,777.3,68.2z M773.6,76.4c1.1,0,3.3-1.1,1.8-2.2C773.8,73,770.7,75.7,773.6,76.4z M778.6,80.8
	c1-0.8,1-2.4,0.1-3.2C777.9,78.3,777.6,80.4,778.6,80.8z M798.5,75.1c0-0.3,0-0.6,0-0.8C798.4,74.6,798.4,74.9,798.5,75.1z
	 M771.3,84.5l-0.3,0.4l0.5,0.1L771.3,84.5z M801.3,73.7c-0.7-0.4-1.8,0.2-2.6,0.3C799.4,74.1,802.1,75.3,801.3,73.7z M798.7,74
	L798.7,74L798.7,74l-0.2,0.1l0,0c-0.1,0.1,0,0.2,0,0.3C798.5,74.2,798.5,74,798.7,74z M802,94.4c-0.1,0-0.1,0-0.2-0.1L802,94.4
	L802,94.4z M812.2,94.4c-0.3-6.3-6.1,1.2-7.9-4.8C797.9,95.3,807.8,96.4,812.2,94.4z M790.8,89.1l-0.4-0.1l0.1,0.4L790.8,89.1z
	 M793.7,86.5c1,0.4,2.2,0.3,3.2-0.2c0,0,0,0,0,0.1c0-0.1,0.2-0.2,0-0.1h0.1c-0.6,0-1.1-0.9-1.7-1.2l0,0c0,0,0.1,0.1,0.2,0.1
	c0.1,0,0.1-0.1,0.2-0.1c-0.7-0.5-0.8-2-1.3-2.9l0.3-0.1c-0.1-0.1-0.2-0.1-0.3-0.1l0,0c0-0.1,0.1-0.1,0.1-0.2l0,0l0,0l-0.3,0.1l0,0
	c0,0.1,0.1,0.2,0.1,0.2C793.6,83.2,792.3,85.4,793.7,86.5z M798.3,83.6c-1,0.2-1.8,1.1-2.7,1.4C796.9,84.8,798.5,85.5,798.3,83.6z
	 M788.9,95.3c0,0.2,0,0.4,0,0.6C789.1,95.7,789.1,95.5,788.9,95.3z M794.2,90c0.1-0.1-0.5-0.6-0.8-0.9
	C793.9,89.6,793.4,91.2,794.2,90z M793.3,89L793.3,89L793.3,89C793.4,89.1,793.3,89.1,793.3,89c2.1,1.4,4.6-0.2,3.6-2.6
	C795.9,87.5,794.8,88.7,793.3,89z M738.6,94.9c-0.1-0.4-0.2-0.8-0.4-1.2c-0.8,0.3-0.3,1-0.1,1.6C738.3,95.2,738.6,95,738.6,94.9z
	 M744.3,98.2c-0.4-0.8-1-0.2-1.6,0C743.2,98.9,743.7,98.4,744.3,98.2z M752.1,75.7c1.4,0.8,2.4-1.8,1-2.1
	C751.5,73.7,750.9,74.8,752.1,75.7z M756.3,73c-0.1,0.2-0.2,0.4-0.4,0.5l0.3,0.6C756.6,73.8,756.6,73.4,756.3,73z M754,66.8
	c3.7,2,3.5-7.4-0.8-4.5c0-0.1,0-0.1,0-0.2c-0.1,0-0.1,0-0.2,0l0,0l0,0c0,0,0.1,0.1,0.1,0.2C753.7,63.7,752.1,65.6,754,66.8z
	 M753.3,62.1c0.1,0,0.2,0,0.3,0C753.4,61.6,753.3,61.7,753.3,62.1z M746,74.4c2.5-1.2-2.7-3.3-2.9-1.6
	C743.8,73.7,744.8,74.3,746,74.4z M733.6,70.2c0.6,0.5,1.4-0.7,0.5-0.8C733.7,69.4,733.4,69.8,733.6,70.2z M768,90.5L768,90.5
	L768,90.5L768,90.5c-0.1,0,0-0.3-0.2-0.2c0.1,0-0.2,0.2-0.2,0.3L768,90.5z M733.7,63.2l-0.3,0.5h0.5L733.7,63.2z M736.6,81.8
	c0.8-0.2,0.7-1.3,0.1-1.7C736.5,80.7,735.9,81.5,736.6,81.8z M729.1,61.6c1.7-0.9-0.2-4.6-1.7-3.3C726.3,59.5,727.5,61.8,729.1,61.6
	z M585.3,89.1l-0.5,0.2l0.4,0.3L585.3,89.1z M763.4,69.5c1.5-1.2,0.1-3.4-1.2-4.2C761,66.6,761.3,69.6,763.4,69.5z M759.6,91.1
	l0.3,0.3v-0.1C766.2,97.2,765.2,88.3,759.6,91.1L759.6,91.1L759.6,91.1L759.6,91.1z M763.8,73.4l-0.4,0.5L764,74L763.8,73.4z
	 M755.8,81.1c-0.9,0.1-1.8,0.3-2.7,0.4C754.2,82.7,758.5,82.5,755.8,81.1z M766.8,62c-0.5-0.6-1.3-0.6-1.7,0
	C765.8,62.7,766.2,62.9,766.8,62z M763.7,83.6c0.2,0.4,0.7,0.4,0.9,0.1C764.8,82.9,763.8,82.9,763.7,83.6z M313.7,120.6
	c1-0.4,1.4-3-0.2-3.1C311.7,117.6,312.7,120.7,313.7,120.6z M753,81.6L753,81.6C753.1,81.6,753.1,81.6,753,81.6
	C753.1,81.5,753.1,81.5,753,81.6C753.1,81.5,753.1,81.5,753,81.6C753,81.5,753,81.6,753,81.6z M756.4,94.3c0.4-0.5-0.1-1.1-0.7-1.1
	C755.8,93.6,755.8,94.5,756.4,94.3z M754.6,92.4c0,0.8,0.5,0.8,1,0.8C755.6,92.6,755.4,92.2,754.6,92.4
	C755.5,90.9,754.4,90.5,754.6,92.4C754.6,92.3,754.6,92.3,754.6,92.4L754.6,92.4z M757.8,87c0.2-0.4,0.3-0.7-0.4-0.8
	C757.3,86.6,757.2,86.9,757.8,87z M753.4,82c-0.1-0.1-0.2-0.2-0.3-0.4c0.1,0.2,0.1,0.5,0.2,0.7C753.3,82.3,753.4,82.1,753.4,82z
	 M358.8,83.3L358.8,83.3L358.8,83.3L358.8,83.3C358.7,83.3,358.8,83.4,358.8,83.3z M357.5,83.8c0.4-0.1,0.8-0.3,1.2-0.5
	C357.9,82,355.7,82.9,357.5,83.8z M360.8,89c-0.6-0.1-1.3-0.6-1.6,0.2C359.8,89.3,360.5,89.8,360.8,89z M353.2,94
	c0.4,0,0.8-0.3,0.4-0.6C353,92.9,352.1,93.9,353.2,94z M359.3,95.6c-0.3,0.1-0.6,0.5-1.1,1C359.8,98.1,362,96.2,359.3,95.6z
	 M352.8,116.4c0.5-0.5,0.4-1.8-0.4-1.9C351.3,114.5,351.8,116.5,352.8,116.4z M350.3,119.8c1.3-1-0.7-2.8-2-2.4
	C347.1,118.4,349,120.3,350.3,119.8z M349.6,125.2c-1.7-0.8-5.1-2.9-4.5,0.9C347.1,126.3,348.2,127.9,349.6,125.2z M350.2,101.8
	c0-0.5-0.5-0.7-0.7-0.2C349.2,102.2,350.2,102.9,350.2,101.8z M357.4,99.3l-0.3,0.4l0.4,0.1L357.4,99.3z M349.2,107.6
	c1.2,0,1.2-0.6,0.7-1.5C349,106.2,347.8,107.3,349.2,107.6z M348.2,98.1c1.6-0.8,3.7-3,0.8-3.7C347.2,94.1,345.8,98.4,348.2,98.1z
	 M365.5,113.2c1.7-0.6,0-3.9-1.2-2.9C363.4,111.4,363.9,113.4,365.5,113.2z M369.4,113.7c0.2,0,0.3,0.1,0.5,0.2
	C369.8,113.3,369.7,113.2,369.4,113.7z M370.1,113.9L370,114C370,114,370,113.9,370.1,113.9z M360.8,109.3c3.9-1.4,0.2-3.3-0.9-5.3
	C355.1,102.3,356.6,110.3,360.8,109.3z M364.9,117.3c0.4-3.4-4.3,1.2-5.4,1.4C359.5,122.1,364.3,118.8,364.9,117.3z M369.9,114
	l0.1-0.1c-0.1,0-0.1,0-0.2-0.1C369.9,113.9,369.9,113.9,369.9,114z M359.8,118.1l-0.2,0.2C359.8,118.2,359.8,118.1,359.8,118.1z
	 M572,92.9c1.5-0.2,2.9-0.4,4.4-0.6c-1.7,0.2-1.9-1.3-2.7-2.3C571.7,87.3,568.3,92.8,572,92.9z M366.9,106.4c4.2,2.2,7,0,4.3-4.3
	c-1.5-0.6-3.3,1.8-5.2-0.1C363.9,103.1,364.7,106.2,366.9,106.4z M357.5,116.7c-1.8,1,1,2.4,2.1,1.5
	C359.1,117.3,358.4,116.8,357.5,116.7z M361.8,124.7c-0.3,0.1-0.6,0.1-0.8,0.2c0.3,0.2,0.5,0.3,0.8,0.5
	C361.7,125.1,361.8,124.9,361.8,124.7z M360.5,124.9L360.5,124.9L360.5,124.9c0.1,0,0.3-0.1,0.4-0.1c-0.2-0.1-0.4-0.2-0.5-0.3
	C360.4,124.6,360.5,124.9,360.5,124.9z M331,110.8c-0.2-0.4-0.3-0.6-0.8-0.4C330.3,110.8,330.6,110.9,331,110.8z M332.1,121.3
	c3.5-1.2-4.5-3.8-4.3-2.2C329.1,120,330.3,121.6,332.1,121.3z M331.2,110.7c-0.1,0-0.2,0.1-0.2,0.1l0.1,0.1L331.2,110.7z
	 M331.1,110.9c0.1,0.1,0.1,0.1,0.2,0.2c0-0.1,0-0.2,0-0.4L331.1,110.9z M327.4,127.8c-0.1-0.1-0.4,0-0.6,0
	C326.5,128.7,327.9,128.4,327.4,127.8z M332.4,113.4c1.2-0.3-0.8-1.9-1.2-2.3C331.2,112,331,113.3,332.4,113.4z M319.8,113
	c-1.3-1.7-4.1-0.2-3.4,1.9C317.3,115.5,320,114.3,319.8,113z M320.3,98.8c2.7,0.2,0.8-4.8-0.4-5.9C316.7,92.4,317.6,98.5,320.3,98.8
	z M317.5,123.4c-1,0.4,0,2.1,0.8,1.9C318.9,125.1,318.6,122.9,317.5,123.4z M322.1,109.9c1.4-1.4-1.3-3.6-2.3-4.6
	C313.2,104.8,317.3,112.1,322.1,109.9z M320.1,118.1c-1,1.4-0.7,3.3,0.7,4.3C324.4,123.6,322.2,115.9,320.1,118.1z M332.6,99.2
	c1.1-0.1,0.8-1.5,1-2.4C332.1,96.9,330.4,98.5,332.6,99.2z M343.6,116.1c-0.1,0-0.2-0.1-0.4,0C343.4,116.1,343.5,116.2,343.6,116.1
	C345.5,111.5,342.2,111.8,343.6,116.1z M341.9,117c0.5-0.2,0.8-0.9,1.4-0.9C341.9,115.1,339.4,117,341.9,117z M344.9,126.1
	c-0.1,0.1-0.1,0.1-0.2,0.2c0.1,0,0.3,0,0.4-0.1L344.9,126.1z M356.4,128.8l-0.1,0.1c0.1,0,0.2,0.1,0.3,0.1L356.4,128.8z
	 M342.4,127.1c-0.5,2.2,1.7-0.1,2.3-0.8C343.9,126.5,342.8,126.3,342.4,127.1z M344.9,126.1l0.2,0.2
	C345.1,126.1,345,126.1,344.9,126.1z M354.6,144.7c-1.7-6.1-3-10.6,1.7-15.8c-2.8-1.5-3.9,0.8-5.9,2.3c-2.1-1.7-2.9-4.5-4.9,0.7
	c-1.5,2.8-4.2-0.7-5.9,0.6C343.2,139.5,348.8,139.8,354.6,144.7z M334.4,96L334.4,96L334.4,96c0,0,0.1-0.2,0.2-0.2
	c-0.5,0.1-0.9,0.6-1,1C334,96.7,334.3,96.5,334.4,96z M334.4,95.8v-0.3C334,95.8,334,95.9,334.4,95.8z M338.3,97.1
	c0.2-0.1,0.4-0.1,0.7-0.2C338.2,95.2,336.4,96.8,338.3,97.1z M333,103.1c0,1.6,2.3,1.8,3.2,0.8C337.6,101.8,333.6,101.3,333,103.1z
	 M359.7,118.2l0.2-0.2C359.7,118.1,359.5,118.1,359.7,118.2z M472,106.5c3.8,0.6,4.9-4,0.8-4.4C470.6,102.1,469.5,106,472,106.5z
	 M468.8,97c1.3,0.3,1.8-1.5,0.7-2.1C468.4,95.4,467.5,96.3,468.8,97z M473.4,110.5l0.9-0.7C474,109.9,473.7,110.2,473.4,110.5z
	 M478.8,101.6l0.3-0.5h-0.5L478.8,101.6z M473,94c1.5,0.1,2.9-1,3.1-2.4C475.3,87.9,469.2,92.2,473,94z M442,94.2
	c0.6-1.1-1.1-1.2-1.3-0.4C440.8,94.8,441.4,95.2,442,94.2z M479,95.3c2-0.3,3.8-2.8,0.9-3.1C478.3,92.5,476.8,94.9,479,95.3z
	 M455.2,98.7c0.8-0.7,0.3-1.5-0.5-1.5C454,97.7,454.1,99.5,455.2,98.7z M441,101.3c1.6-0.3,0.1-2.5-0.9-1.9
	c-1.3,1.9-3.8,0.6-4.9,2.4C437.2,102.3,439,101.5,441,101.3z M460.9,83c2.8-0.5,0.2-3.6-1-1.6C459.6,82.2,460.3,83.2,460.9,83z
	 M459.8,87.3c-0.9,0.3-1.6,1.6-0.7,2.2C460.1,89.6,461.5,87,459.8,87.3z M458.1,101.3c2.4,0.4,4.7,1.2,7,1.2
	C470.5,98.8,460,98,458.1,101.3z M491.4,93.7c0.9-0.1,0.8-1.3-0.1-1.3C490.4,92.6,490.5,93.8,491.4,93.7z M501.4,95.6
	C502.1,89.1,497.6,90.2,501.4,95.6L501.4,95.6z M506.6,97c0.3,0,0.6-0.4,0.9-0.5C506.5,95.3,504.8,96.7,506.6,97z M576.5,92.4
	L576.5,92.4L576.5,92.4z M511.9,100.2l-0.5-0.1l0.1,0.6L511.9,100.2z M486.2,95.5c-0.6-0.8-0.9-0.7-1.6-0.1
	C485.2,95.6,485.8,96.2,486.2,95.5z M479.5,86.9l-0.2-0.1c0,0.1,0,0.1,0,0.2L479.5,86.9z M479.6,86.9l-0.2,0.2
	C479.5,87,479.6,87,479.6,86.9z M479,86.7l0.3,0.1C479.3,86.4,479.2,86.4,479,86.7z M480.1,87.9c1.2-0.1,0.2-1.5-0.6-0.9
	C479.4,87.5,479.6,87.8,480.1,87.9z M482.3,106.1c0.2,0.1,0.4,0,0.6-0.1C483.9,105,481.1,105.2,482.3,106.1z M388.2,99.2
	c0.4,0.3,0.4,0.1,0-0.4C388.2,99,388.1,99.1,388.2,99.2z M387.8,104.3c-0.2-0.2-0.3-0.3-0.5-0.5c-0.2,0.2-0.4,0.4-0.6,0.7
	C387.3,104.9,387.4,104.7,387.8,104.3z M373.7,90.6c1.1-3.3-6.3-3.1-3.5,0C371.1,91.6,372.7,91.6,373.7,90.6z M388.3,98.5
	c-0.1,0-0.3,0-0.4,0c0.1,0.1,0.1,0.1,0.2,0.2L388.3,98.5z M387.7,98.2c-0.1,0-0.3,0.1-0.4,0.2c0.2,0,0.4,0,0.6,0.1
	C387.8,98.4,387.8,98.3,387.7,98.2z M382.9,86.1l-0.4-0.1l0.2,0.4L382.9,86.1z M385.2,100.5c0.4-0.2,0.3-0.5-0.1-0.7l0,0l-0.3-0.1
	l0,0c-0.1,0.1,0,0.3-0.1,0.3C384.7,100.3,384.8,100.5,385.2,100.5z M375.5,110.3c0.2-0.4,0-0.9-0.3-1.2
	C374.6,109.7,374.6,111.4,375.5,110.3z M381.2,97.9c0.3-0.4,0.5-0.8,0.1-1.2C380.6,96.5,380.5,97.6,381.2,97.9z M376.9,96.6
	c-0.1-0.5-0.4-0.5-0.8-0.1C376.4,97,376.7,97.1,376.9,96.6z M380.1,104.4c0.8-0.2,0.3-0.9-0.1-1.4
	C378.9,102.5,379.3,104.1,380.1,104.4z M378.8,112.6c-1.7-0.1-0.6,1.9,0,2.7C380.6,116.5,380.8,112.3,378.8,112.6z M434.6,106.4
	c0.4,0,0.8,0,1.2-0.1C435.5,104.6,432.9,105.5,434.6,106.4z M428.1,83.9l0.8-0.9C427.8,82.2,426.5,83.7,428.1,83.9z M426.3,94
	c1.8,0.5,3.2-2,0.8-2C426.4,92.2,425.1,93.8,426.3,94z M426.3,99.8l0.1-0.5l-0.5,0.2L426.3,99.8z M437.3,107.5
	c0.9-0.1,1.7-0.1,2.6-0.1c-1.3-0.3-2.6-0.5-3.8-0.9C436.3,107,436.5,107.5,437.3,107.5z M436.1,106.5c0-0.1-0.1-0.1-0.1-0.2
	l-0.1,0.1l0.1-0.1c-0.1,0-0.1,0-0.2,0c0,0.1,0.1,0.1,0.1,0.2C436,106.5,436,106.5,436.1,106.5z M414.3,100.1
	c-0.4-0.3-0.6-0.3-0.5,0.2C414.1,100.6,414.2,100.3,414.3,100.1z M403,106.3c-0.2-2.4-0.7-6.3-3.5-6.3
	C397.9,102.6,401.3,104.7,403,106.3z M392.1,87.8c1-0.9,0.1-2.5-1.1-2.3C389.5,86.1,390.9,88.3,392.1,87.8z M410.9,105.7
	c0.9-0.9,0.9-2.9,0.4-3.9C410.6,103,409.3,104.6,410.9,105.7z M388.1,98.7c0,0.1,0.1,0.1,0.1,0.1c0-0.1,0.1-0.2,0.1-0.3L388.1,98.7z
	 M411.4,101.8c0.8,0.1,1.7-1,2.6-1.4C413.2,100.4,412.3,101.5,411.4,101.8z M1919.8,110.8c-3.9,0.6,0.5-3.9-1.6-4.5
	c-2.9-0.1-2.8-3-3.9-4.8c-1.4,2.1-3.2,2.5-4.7,0.2c-3.3-0.2,1.6,3.6,2.2,4.7c0.2,0.3-0.3,1-0.7,0.8c-2.3-1.6-3.9,1.6-6.1,1
	c-0.7,2.7-3.2,4.2-3.8,6.8c0,0.9-1,0.9-1.7,1c-4.9,1.7,2.8,9.9-9.2,11.9c3.8,10.9,0.6,10.9-5.3,2.4c8.4,1.9-2.4-21.9,6.6-11.3
	c0.1,2.8,4.1,4.8,3.9,1c-1.6-1.8-2.1-4.4-4.8-5.5c-4.1-2.9-1.9-15.2-10.3-9.9c-5.3-3,5.6-3.1,2.4-5.6c-2.6-1.9,1.3-1.8,1.9-3.1
	c5-5.5-0.9-8.5-3.1-2c-5,1.6-0.5-14.8-6.7-8.3c3.9,8-9.6-2.2-10.2,13.8c0.2,0.6-0.7,1.1-1.6,1c-2.9-1.8-1.8-8.5-7.7-2.6
	c4.1,2.8,2.9,4.4,1.5,8.5c4.2,1.4,3-2.6,5.7-3.8c6.3-0.1,9.3-4.6,12.9-8.1c5.3,3-1.7,9.7-6.2,9.6c-1.4,1.3-3.7-0.9-4.7,0.9
	c-1.1,1.3,0.7,5.7-2.1,5.3c-2.6-1.4-10.1,2.4-6.2-3.6c-1.5-0.9-3.9-0.1-6,0.5c1.9-13.6-6.2,0-8.2-9.1c-2.7,6.7-7.6-2-11-2.1
	c-2.8,1.2-2.1-2.9-3.3-4.2c-3.2-0.2-3.7,6.7-6.7-0.1c-11.3-5-2.1-17-15-18.1c-2,0.8,1.2,2.3,1.2,3.3c-2.9,3.2-1.9,6.9-0.9,11
	c0.7,3.1-4.2,5-4.6,1.3c0.3-1.9,1-3.3-1.4-3.8c-0.9-1.1,3.2-5.4-1.4-3.7c-4.2,2.6-3.6-2.3-7.2-2.3c-2.2-4.6-4.7-10.4-9.3-1.4
	c-3.3,5.1-8.4,2.5-13,2.4c0.9,1.8,0.2,4-1.6,3.7c0,0.1,0.1,0.1,0.2,0.2h-0.1c-3.7-2.7-1.1-10-7.6-7c4.3,0.8,4.4,6.9-0.6,4.5
	c-3.2,5.4,0.9,5.4,2.4,10c-2.2,5.9-6.7,0.1-9.2,2c1.2,7.1-9.8,10.3-3.8,16.5c-3.7,6.2-2.5-6.8-5.2-5.8c-6.6,2.1-13.7-7.1-16,3.1
	c-7.5,2.5,1-5.1-2.6-6.6c-1.7,0-5.3-1-2.4-2.5c1.9-1.2,4.1,1.3,5.4,0.3c2.8-7.6-3.6-2.7-5.6-4.9c-0.7-3.9-5.5-1.9-8.2-3.5
	c-3.2,1.2-1.9,8.1-5.4,10.5c-1.8-2.9-3.5-4.4-6.5-5.6c1.3-2.3,1.6-6.4,4.9-6.7c4-3.9-4.1-6,3.7-18.2c-3.4-1.6-7.2,1.9-8.6-0.4
	c-1.6-2,1.6-5.4-0.9-6.6c-4.5,1.7,3.3,21.2-8,17.1c-4.5-1.7-1.3,5.1-3.1,6.8c-1.5-1.2-2.6-3.4-4.8-4c6.1-10,1.9-2.9-5.7-7.5
	c-2.8,0.9-9.6,11.9-10.6,4.5c0,0,0,0-0.1,0v-0.1c0,0-0.1,0-0.1-0.1v0.1c-4.5,0.7-9.2,2.9-13.3,3.1c-4.2-1.9-7.5,1-11.2,2.6
	c-3.8,2.8-6.8-6.5-12,1c-2.9,2.2-5.8,14.8-7.8,3.5c-1.7,1.7,0.1,5.2-2.7,6c-2.2,0.4-6.1,2.6-6.7-0.9c-3.5,4-8.4,2.7-11.2-0.8
	c2,9.1-0.8,3.8-4.7,5.3c0.4,1.2,2.4,5.4-0.3,4.3c-3.5-3.7-4.5,3.1-9,0.2c-3.4-0.3-1.8,5.3-5.3,4.5c-4.8,3.2-5.6-0.1-6.7,2.4
	c0.1,1.5-1.6,4-3,2.2c-0.5-1.6,0.8-3.6-0.6-4.8c-2.3,4.6-4.6,4.8-8.3,1.8c-4.2,13.9-2.7-0.9-8.5,5.1c-4-0.1-0.8-5.8-2.4-8.2
	c-4.9,3.4-13.9,10.5-16.8,1.2c1.8-2.7,4.7,2,6.5-0.2c1.6-5.9,0.9-5.1-4.5-7.5c1,1.2,2.8,4.1-0.1,3.8c-3.5-1.3-6.6,4.7-2.9,6.2
	c1.9,1.4-8.4,3.8-8.2,1.5c-2.8-1.9,2.7-5.1-0.4-5.9c-4.3,0.6-13.2,4.9-4.7,6.5c1.4,2.4,4.2,9-0.9,5.7c-2.5-3.5-8.8-2.9-12-6.1
	c-4.8-2.3,0-3.6-0.3-6.8c-0.3-0.7-1.3-0.9-1.8-0.3c-0.7,3.2-7.8,1.1-6.2,4.2c1.3,0.8,3.8,1.6,2.7,3.6c-4.4,3.4-8-3.8-12.4-4.9
	c-4.9,0.3-2.4,4.8-6.2,4.8c-5.3,1-6.3-4.5-7-8.3c-3.3-2.9-1.9,5-4.4,6.1c-1.9-2.2-2-2.2-4-0.9c-2.6,2-5.5-1.5-8.4,0.5
	c-2.7-0.8,1.4-3.4,1-5.4c-1.3-3.4-2.8,3.3-5.2,3.4c-1.5,0.5,0.7,2.8-0.3,3.2c-2.6,0.7-5.1,2-7.7-0.2c-4.4-1.6-10,6.8-14.6,4.2
	c-1.7-3.1-4-5.2-6.2-7.9c-1.4-2.5-10.3-2.2-7.5,1.9c2,0.5,3.8-4.2,5.2,0.3c-0.8,3.7,2.8,1.8,3.6,4.2c-4.3,2.4-10.9-3-14.6-0.9
	c-2.1,2.4-4.6-1.5-6.7,0.3c-1.7,1.3-2.6-0.1-3.9-1.2c-2.3,0.1-2.6,4.2-5.7,3.5c-3.7,1.5-6-2.7-8.6-2.1c-4.4,4.1-12-1.6-17,1.9
	c-5.2,0.6-10.6-0.4-15.2,3.2c-0.6,0.7-1.4,0.3-2.1,0c-3-2.1-5.6,1.5-8.5,1c-5.7-0.9-11.1,0.4-16.7-1.5c-0.9,1.7-1.4,2-2.8,1.6
	c-3.1-3.8-8.9,1.8-12.2-1.7c-4.1-2.4-2.9,2.9-9.9-3.5c-4.3,3.1-4.5,0.3-6.8-2.5c-2.7-3.9-6.1,0.5-9.5,0.8c-3.4-3.5-2.4-7.8,0.8-10.7
	c0,0.1,0.1,0.1,0.1,0.2c0,0,0,0,0-0.1l0,0c0.8-1.6,2.2-2.7,0.4-4.4c-4.3-4-8.6,19.1-12.2,5.9c-3.9,1.6-4.5-0.4-5-3.8
	c-0.9-1.5-4.2-0.3-3,1.4c3.3,13.7-8.8,2.5-2.4-3.6h-0.1l0,0l-0.3-0.3l0.1,0.4c-2.1-0.3-4.1,0.2-5.8-1.7c-1.4,0.5-4.1,2.1-1.8,3.3
	c3.3,0.2,2.3,3.4-0.3,3.7c-3.8,0.8-8.1-3.4-10.8-1.8c-2.4,3.4-3.3-1.4-3.2-3.4c-4-7.7-11.1,9.6-6.3,6.8c2.7,0.6-0.7,1.2-1.8,0.9
	c-2.1-1.5-2.1-5.8-5.3-4.9c-1.2-1.4-4.3-3.1-3.7-5.5c2.8-2.5,8.4,8.5,8.3-0.2c-1.2-3.4-2.2-4.2-5.5-3.5c-2-2.3-4.9-3.3-7.2-5.3
	c-9.3,1-7.2-3.6-10.9-2.9c-0.1,3.5,1.4,6.4-3.2,4.6c-3.4,2.4-5.8-1.2-8.7-2.4c-7,0.2-1.7,6-11.2,1.5c-7.4,8.2-3.9-2.5-8.1-1.1
	c-6.1,1.8-10.6-3.5-13.7-7.8c-2.8-1-0.4,3.7-2.4,4.7c-3.4-6.1-8.6-7.5-13.6-11c-9,6.3-1.4,5.6-10.1,3.7c-8.9,3.3-9.8-11.5-12.8-6.1
	c3.8,6.9-7.1,0.3-7.2,7.4c-7.8,3.1,0.8-8.3-14,1.1c-3.7-6-12-8.3-15.7-1.3c-4.5,2.4-6.9-6.6-10.5,0.4c8,5.8,0.9,11.9-4.7-0.1
	c-5.9,5.2-4.3-4.2-7.6-2.3c3,8.7-8.2,0.7-9,11.4c-2.5,3.5-2-1-2.8-2.7c-3.3,0.4-3.1-3.4-5.2-4.4c-0.9,4.7-3.3,2.8-4-0.8
	c-2.8-1.9,0.1,3.2-3.1,2.2c-2.6,0.5,0.3,2.7,1,3.8c1.1,2.2-2.8,3.5-3.4,1.2c-0.7-5.9-5.3-6.6-5.6,0c-0.8,1.5-1.6-0.2-2.4-0.1
	c-1.6,0.1-3.2,1-4.9,0.4c-2,2-6-4.6-5.9,0.3c0.9,1.6,1.5,3-0.1,4.6c-1.6,1.4,0.3,5.1-1.9,5.8c-1.9-1.3,1.1-5.1-2.1-6.3
	c-2.6-0.9-0.3-2.8-1.9-4c-2.5-0.9-1.4-4.2-3-5.3c-2.4,2.5,0.5,7-3.4,9.1c-0.5,5.4,3.8,11.5-3.6,13.9c-9.1,0.3-0.3-18.7-11.5-18.4
	c-0.9-1.5-2.7-4.3-4.3-1.9c-1.4,3.5,7.3,4.7,1.9,7.9c-3.9,2-2.8,5.6-4,9c-2.1,3.3-7.2-0.5-5.5-3.8c1.8-2.2-1.1-5.2,1.1-6.8
	c4.5-3-0.1-2.2-2.4-1.6c-4.1-0.3-4.3,5.7-7.7,0.3c0.2,0.2,0.3,0.3,0.5,0.5c-0.3-0.9-0.7-1.8,0.2-2.6c3.1-5.6-5.5-0.5-5.1,2.9
	c-7.3,4.8,5.3,4.6-4.9,11.8c-4.5,0.8-1.9-9.3-1.9-12.1c-0.8-1.4-5.3-5.2-0.8-4.1c2.1,1.4,4.7-0.4,3.8-2.1c-2.3,0.1-4-1.4-6.4-1.7
	c-4.2,1.1-8.3,17-11.3,9c-0.4-1.7-0.3-1.7,1.6-2.3c3.5-1.6-0.5-5,6-6.7c1.2-3.3-3.7-1.8-5.3-0.9c-1.9-3.5-4,0.5-6.3-0.9
	c-2.2-1.5,9.3-16.1,3.4-16.5c-1.8-0.4-2.2-0.9-1.8-2.4c1.3-8.1-3,4.6-5.5,6.1c-6.7,5.3-5.3-1.1-9.1-2.3c-0.4,10.3-4,7.9,5.4,8.8v0.1
	c-18.4,9.9-4.1,3.9-5.5,16c-3.6,4.3-3.4-2.6-2.5-5c-7.9-5.7-8.9-0.9-10.2,6.2c-8.4,10.2-5.4-7-8.5-6.8c-0.1,4-1.9,6.6-6,7.4
	c-2.4,0.9-0.5,5.3-3.8,5.7c-3.7,1.5-7.8,3.5-9-1.6c-0.6-10-5.7-3.2-12-4.4l-0.1-0.2c1.2,0,1.3-2.3-0.1-2.3c-1.7,0.7-3.9,3.3-5.7,1.8
	c1.3-5.9-10.3-0.8-5.2,4.6c-2.3-0.1-1.8,8.1-5.5,2.9c-0.4-3.9-7.1,0-5.2-4.5c0.4-0.7,2.3-2.4,0.5-2.5c-2,0.5-1.5,3.4-3.5,3.8
	c0.6,0.6,1.2,2.2,1.9,2.2c6.7,4.1-2.8,8.5-0.1,0.2c-2.8,2.1-6.9,2.4-6.6-2.4c-5.7,7.3-10.7,2.8-11.3,7.4c0.7,4.6-2.7,0.3-3.3-1.6
	c0.2,6.7-7,5.7-9.6,1.3c0.3-2.1,2.8-0.3,4.1-0.2c1.3-2.5,1.1-3-1.1-3.4c-1.7-0.2-4.3-0.5-3.5-2.9c-3.6-3.4-5.3,9.8-7.3-0.8
	c-3.4,3.3,1.4,7.5-4.7,9.2c-0.6-6.5-5.8,1.5-6-3.2c1-6.1-9.7,1.9-9.8-5.8c-3.6,2.5-4.9-1.3-7.6-0.5c-1,0.7-0.8,1.6-0.1,2.5
	c2.9,3-4.4,7.6-6.1,5.2c-2.8-5.8-3.8,0.3-5.7,2.7c-1.8-0.2-2.5-3.2-3.8-1.4c-1.4,2-5.9,4.7-5.6,0.3c3.4,2.7,7.8-1.8,5.4-5.3
	c0,0,0,0-0.1,0l0,0l0,0v0.1c-2.8-4-9.1,0.6-6.1,4.5c-5.4,6.2-6.1-1-9.4-4.1c-0.6,0.2-0.9,0.6-0.9,1.1c-7.5,1.2,3.7,12.7-7.6,6.5
	c1.6-7.1-2.6-4.3-4.9,0c3.4,1.6,3.2,7.9-0.9,6.2c-1.5-6.8-3.2-5.1-6.7-1.4c-4.6-2-1.6-7.1,3-7c2-0.2,7.7-6.5,4.2-6.5
	c-3.5,5.3-12.9,3.6-13.1,11.2c-0.2,2.5-11.4,4.2-9.6-0.5c-5-0.7-1.1,5.2-8.9,5.7c-7.9-16.3-8.2,0.1-15.9,0.7c-1.7-1.2-4-0.9-5.3,0.8
	c-3.2-0.5-5.7-4.5-9.7-3.9c-3.3,4.7-3.3-1.5-4-4.6c-0.8,4.4-3.1,7.4-5.4,10.5c-3-0.6-7.4-12.6-9.6-7.7c1.1,2.6-0.7,4-3,2.5
	c-0.4-1.2-1.3-4.4-2.4-1.9c0.2,4.3-8.4,3.7-3.8,7.9c3.4,3.6-1.5,2.7-3,0.3c-1.1-1.2-2.4-3.2-3.9-1.2c-1.1,1.5-1.9-0.8-2.8-1.6
	c-3.6-0.5-4.4-9.9-6.8-4.1c-1,0.1,0.2,1.9,0.6,2.4c1.4,3.5-3.1,1.2-3.3-0.6c-0.8-1.6,1.5-2.2,2.5-2c1.3-4,2.2-15.7-3.3-6.3
	c-6.4,2.4-2.8-3.2-2.6-6c-8.6,0.6,0.8,10.8-12.8,1.7c0.6,1.4-1.4,2.2-2.5,2c-1.6-0.6-3.5-0.3-4.9,0.6c-4.6,1.9-1.7-9.6-6.5-8.2
	c-7,9.1-5.8-3.4-9.5-7.5c-1,3.8-4.3,7.8-7.7,5.6c1.5,2.5-1.8,7.7-4.5,6.8c-1-3.2-5.5-0.1-5.5-2.9c-0.4-7.5-0.1-5-5.8-4.7
	c-0.8,2.4-3.9,1.9-4,4.7c-0.3,0.8-0.7,2.1-1.6,2.3c-1.9-0.2-1-5-3.1-2.7c-4.5,9-2.7-7.3-10-0.5V96c0,0,0,0-0.1,0v-0.1
	c-0.2,0-0.4,0-0.6,0c-0.3-0.1-0.7-0.2-1,0c-0.1,0-0.2,0-0.2,0l0.1,0.1l0,0v0.1c-6.2-1.2-5.5-4.9-9.3,2.1c-2.8-1.1-0.2-7.2-3.5-7.1
	c-1.1,1.9-1.9,4.2-5.2,3.9c2,2.5-1.4,9.1-3.6,5.1c-1.8,0.1-2.8,3-5.3,2.1l0.6-0.1c-5.1-6.2-4.3,1.4-8.2,2.9c0,0.1,0.1,0.1,0.2,0.1
	c-0.1,0-0.1,0-0.1,0c-2.5-2.4-5.5-9.2-6.3-1.9c-0.4,1.2-1.4,1.6-2.9,0.9c-3.4-1.7-7,2.5-10.2,2.3c-0.1,0-0.1,0-0.2-0.1
	c0-0.1,0-0.1,0-0.2c0.9-0.4-0.8-4.5,1.3-3.4c0,0-0.2-0.1-0.2-0.2l0.1,0.1c0-0.1,0-0.1-0.1-0.2c0.2,0.2,0.6,0,0.3-0.4
	c0,0-0.2,0.1-0.4,0.1c-0.7-2-1-4.4-1.6-6.5l0,0c-1.6-0.6-6.3-0.6-5.7,1.9c1.8,0.9,5.7,5.1,2,5.4c-8.3-3.7-10.2-2.3-11,5.7
	c-2.8,0-2.3,0.9-2,3.1c-4-2.7-4.9-3.9-10.3-1.9l0,0c-6.6,9.9-2.7-5.9-10.8-3.5c-0.8,0.2-1.8-0.6-2.8-0.9c-5.2,7.7-5.1-2-10.1-2.9
	c-0.7-0.2-1.7-0.5-2.1-0.2c-1.2,1.5-4.3-1.2-4.2,1.1c5.1,4.8-1.3,10.7-4.4,4.2c-0.4,3.3-2.2,8.3-4.2,2.6c-5.9-1.5-8.7-3.3-5.8-9.3
	c-2.8,0-5.3,4.4-6.5-0.2c-4.5-1.2-11.9,17.5-12.4,5.2h-0.1l0,0c0-0.1-0.1,0-0.1,0c-5.1-0.6-2.8,5.4-4.2,8.2
	c-0.1,0.1-0.4,0.2-0.6,0.2c0.9-1.7-9.2-7.9-6.9-1.8c-2.5,2.2-3.9-4.1-2.3-6c0.4-0.8,0-1.4-0.9-1.7c-3.9-2.3-3,2-5.8,3
	c-3-0.5-5.3,1.9-8.2,2.7c4.2,13.5-1.4,5.8-5.1,11c-1.6,3.9-6.1-0.1-3.3-2.9c0.4-0.6,1.2-1.2,0.7-1.9c-5.8-9.1-7.6,6.2-8.9,9.5
	c2.7,4.8-3.9,5.1-5.9,2.7c0,0.1-0.1,0.1-0.1,0.2l0.1-0.2h-0.2c0,0.1,0.1,0.2,0.1,0.2c-1.7,2-0.3,4.3-0.9,5.7c-0.8-3.3-0.9,1.9-1.3,3
	c-1.1,3.7,6.4,3.9,3.6,8.3c-0.9,4-8.4,4.7-8.8,0.1c-1.8-2-5.6-1.6-4.8-4.9c-4.3,4.9-5.1-0.3-8.2-2.8c-2.4-0.5-1.5-4.6-4.7-3.3
	c1.6,3.2-4.4,13.3,3.6,9.4c1.6,0.7-0.3,3.9,2.3,4.7c0.2,5-7.1-3.1-9.4,0.5c-0.6,2.4,3.8,2.7,2.8,5.2c-1.8,1-3-2.6-5.4-1.8
	c-2.4-1.4,1.7-11,1-15c-1.2-4.6,13.5-8.8,7.2-13.7c-4.4,3.8-12.2,7.9-10.5,13.6c-2.4,1.4-7.7-5.1-9.6-1c0.1,1.2,1.5,2.1,0.8,3.4
	c-1.6,2.3,1.6,4.1,1.5,6.4c-0.2,3.4,4,2.1,4.7,4.4c0.8,3.2-3.1,3.9-4.7,1.5c-3.7-10.7-3.5-0.4-10.2-3.4c-10.4-12-5,7.6-13.2,3.8
	c-2.9-0.5-5.7-0.1-8.9-0.9c-3.3-2.1-4.4-8.1-9.5-8.1c-0.6,1.9,4.8,7.8-0.7,8.1c-4.9-0.4-3.3-3.8-5.8-5.2c-9.6-6.4-6,2.9-11,4.4
	c-4.2-10-1.8,1-9.5-4.5c-3.2,0-4.9,6.6-9.1,3.7c-5.1-0.1-4,5.2-10.1-1.7l0,0c0-0.1,0-0.3,0-0.5c-0.1,0.2-0.2,0.3,0,0.5
	c-4.7-3.5-6.2,10.2-8.8-0.4c-0.3-1.2-0.9-1.9-1.9-1.7c-5.3,2.1-5-0.6-7.7-3.7c-1.2-1.5-3-6.1-4.2-1.7c-2.5,6.3-4.7,4.1-5.4-1.2
	c-4.6-1.3-4.9-1.5-11.2-0.9c-2.9,0.8-1.7-4.8-4.4-4.4c-1.7,0.3-3.7,0.1-4.4-1.7c-4.8-8-10.3-4.6-4.8,3.2c-1,0.5-1.9,1-2.9,1.5
	c1.9-0.1,1.1,3.8-0.1,1.7c0.1-2.2-2-0.9-3.1-2.4c2.1-6.1-5.5-2.2-5.7-15.8c1.4-3,2.9,4.7,4.6,1.9c-1.2-2.7,2.4-7.3-0.3-8.5
	c-1.6-0.4-1.9-1-1.5-2.6c6-4.6,5.9,6.1,4.6,9.7c7.2,8.7,4.9-4.3,3.1-8.9l0,0c-3.3-3.5,3.8-13.7-2.9-12.3c-2.7,1.4-0.8,8.2-4.9,6.6
	c-2.6-2.2-4.6-11.7-8.6-8.1c-0.1,2.1,5.1,2.9,2.3,4.8c-3.4,0.1-1.6,2-1,3.9c-2.3,9.8,5.7,20.3,1.5,29.2c-14.3,5.1,3.6-6.3-4.6-9.6
	c1,5-4.3,10.8-8.3,6.6c-0.5,3.3-2.3,1.8-4.3,1.2c-4.7-4.3-3.9-4.3-2.6-10.6c-1-4.1-4.2,0.3-5.3,2c0.9,3.5,3.8,7.7-0.2,10.2
	c-3.6,1.2-4.5-1.7-7.1-5.7c-6.2,2.7-4.5-6.3-10.9-3.8c0.7-3.2,1.7-5.1,5.3-4.6c-2.5-5.4-8.2-6.5-12.6-7.2c3.2-5.3,11,4.1,15-1.3
	c5.9,0.2-2.2,6.7,0,9.4c1.6,3.1,5.9,3.5,7.3,7.1c2.2,0.4,1.6-2.5,0.4-3.5c-2.1-2.7,2.6-3.3,2.7-6c0.5-2.7,4.7-0.1,6.9-1
	c3.1,1.2-1.8,5.2,1.6,6.6c3.8,1-0.6,7.9,3.8,7.2c2.3-2.2-5.8-12.1,2.1-9.5c5.5,1.4,6.4,0.6,2.8-6.2c-3.6,0-7.7,1.6-9.4-2.7
	c-3.4,2.6-4.6-1.1-7.6-2.1c1.4-3.2,9.5,0.8,5.9-9.8c-1,0.8-2,1.6-3,2.3c0.7-2.4,0-2.4,0,0l0,0c-1.4,7-4.5,0.5-8,0.5l0.1-0.2l0,0l0,0
	c-0.7-0.1-1.3-0.1-1.9,0c-1.5,3.3-1.9,5.6-6.5,4.5c-3.8,1.8-1.7-3.3-2.8-5.3c-1.1,0.4-0.7,3-2.3,2c-2.2-0.9-4.3-0.3-6.4-0.8
	c-3.9,0.7-1.7,8.7-8,4.1c-1.3-1.9,1.2-5.6-2.7-5.7c-3.3,7.3,3.8,14.4-11,14.1c2.3,3.8,8.4,2.9,6.3,8.7l0,0l0,0c0,0,0,0,0,0.1
	c0,0,0,0,0-0.1c3.7,1.7,3.3-2,3.5-4.6c1.9-2.4,3.5-6.7,5.8-7.8c3.4,1.6,0.3,3.2,1,5.5c1.6,0.1,3.7,0.7,4.7-1c5-5,5.7,4.1,4.6,7.4
	c-1,2.4,2.9,4.5,1,6.7c-2.8-1.6-3.3,3.9-5.6,5.2c-2.5,4-6.9-0.2-8.3,2c-2.1,2.9-4-0.8-3.2-3.3c-1.5,0.1-2.9,0.3-3.3,2.3
	c-1.5,2.1-4.7-0.9-6.4,1.7c-3.7,1.8-6.1-9-7.7,2.9c-3.1,0.9-1-3.6-3.8-4.2c-7.3-4.4,7.1-3.4,10.2-4.7c-5.4-3.5-11.9-0.4-16.4,1.2
	c-1.5-2,1.8-3.8,2.7-5.3c-2.1-3.9-8-0.7-5,3.6c-2.1,5.7-7.8-0.5-4.4-4.5c-5.7-2.6-3.7,7.3-0.4,9.1c-4.3,2.2-8.8,0.7-10.5,6
	c-2.6,2.1-6.1-2.3-4.3-4.9c0.8-3,5-0.7,6-3.2c1.5-5.9-4.9,1.9-10.2-1.6c-7,3.5,0,3.9-4.5,7.8c-0.4,0-0.4,0.8-0.9,0.3
	c1.5-0.6-1.2-5.7-3.4-4.2c-2.6,2.4-6.4-2.7-6.5,2.2c-2.8,0.1-3.7,4.9-6.8,2.9c-1.8-1.8-5.5,0.2-6.1-2.6c1.5-1.9,8.1-3,2.4-5.6
	c2.8-2.6,6.5-3.6,4.1-8.2c-2.4-4.5,2.3-12.2,3-3.7c2.2,3.3,1.5-2.2,3.2-2.9c1.8-4.1-11.6-4.5-11.7-0.4c-1.3,3,2.5,7.2,1.3,8.8
	c-2.8,0.7-2.8,0.7-3.1,3.1c0.2,7.9-10.6,11.4-3.9,0.7c2.3-3.2-2.7-5.3-1.8-8.7c0.1-0.3-0.5-0.9-0.9-1c-5.1,0.6-4-3.1-1.2-5.8
	L6.3,118c1-2.8,3.1-5.1,5.7-6.5c-0.8-3.6-9.3-5.4-9-1.6c5.7,4.1,0.2,6.6-3,3.5V170h1920v-59.4
	C1919.9,110.7,1919.9,110.7,1919.8,110.8z"/>
</svg>
